<svg xmlns="http://www.w3.org/2000/svg" xmlns:xlink="http://www.w3.org/1999/xlink" width="866.982" height="680.899" viewBox="0 0 866.982 680.899"><defs><style>.a,.d{fill:#a8c4e5;}.a,.h{opacity:0.4;}.b{fill:#8db0da;}.bc,.bp,.c{fill:#fff;}.e{fill:#2c4482;}.f{fill:#97cbff;}.g{fill:#e1eaf4;}.ab,.ac,.bw,.i{fill:none;}.ab,.bw,.i{stroke:#fff;}.ac,.bw,.i{stroke-linecap:round;stroke-linejoin:round;}.i{stroke-width:1.34px;}.j{fill:#ebd265;}.k{fill:#ff5c97;}.l{fill:#527ded;}.m{fill:#45bfab;}.n{fill:#dea749;}.o{fill:#3c5cb3;}.p{fill:#d64d7f;}.q{fill:#5986ff;}.r{fill:#4367c7;}.s{fill:#50dec6;}.t{fill:#5994c1;opacity:0.33;}.u{fill:#ffd22d;}.v{fill:#d84177;}.w{fill:#6271f0;}.x{fill:#1e1b5e;opacity:0.45;}.y{fill:#52a5ff;}.z{fill:#4c73db;}.aa{fill:#a7d1e8;}.ab{stroke-miterlimit:10;stroke-width:1.55px;}.ac{stroke:#1d3570;stroke-width:2.82px;}.ad{fill:#add5f7;}.ae{fill:#bfdfff;}.af,.bl{fill:#88bdeb;}.af,.bp{opacity:0.43;}.ag{fill:#ebf7ff;}.ah{fill:url(#a);}.ai{fill:url(#b);}.aj{fill:url(#c);}.ak{fill:url(#d);}.al{fill:url(#e);}.am{fill:url(#f);}.an{fill:#ef487c;}.ao{fill:#ff80ae;}.ap{fill:#ffc2b0;}.aq{fill:#d0e7f4;}.ar{fill:#4264bf;}.as{fill:#ea8a6c;}.at{fill:#283d75;}.au{fill:#eb6092;}.av{fill:#21275e;}.aw{fill:#fcfeff;}.ax{fill:#e9e9ff;}.ay{fill:#a1a1e5;}.az{fill:#565682;}.ba{fill:#6b6b9b;}.bb{fill:#45446c;}.bc{opacity:0.46;}.bd{fill:#513554;}.be{fill:#715255;}.bf{fill:#dbefff;}.bg{fill:#b0daff;}.bh{fill:#5366c4;}.bi{fill:#99c4eb;}.bj{fill:#c7e0f5;}.bk{fill:#5980ab;}.bm{fill:#8585ff;}.bn{fill:#36475c;}.bo{fill:#dcf1ff;}.bq{fill:#514677;}.br{fill:#423a66;}.bs{fill:#bc4073;}.bt{fill:#4a70d6;opacity:0.27;}.bu{fill:#c9457b;}.bv{fill:#ff579c;}.bw{stroke-width:6.99px;}</style><linearGradient id="a" x1="-1.966" y1="0.84" x2="-0.894" y2="0.84" gradientUnits="objectBoundingBox"><stop offset="0" stop-color="#ddecf8"/><stop offset="0.88" stop-color="#a1cff7"/></linearGradient><linearGradient id="b" x1="-0.563" y1="0.658" x2="0.516" y2="0.658" xlink:href="#a"/><linearGradient id="c" x1="-1.714" y1="0.897" x2="-0.643" y2="0.897" xlink:href="#a"/><linearGradient id="d" x1="-0.486" y1="0.684" x2="0.593" y2="0.684" xlink:href="#a"/><linearGradient id="e" x1="-1.461" y1="0.954" x2="-0.391" y2="0.954" xlink:href="#a"/><linearGradient id="f" x1="-0.41" y1="0.709" x2="0.669" y2="0.709" xlink:href="#a"/></defs><g transform="translate(0 0)"><g transform="translate(0 0)"><path class="a" d="M786,662.81,376.71,426.49c-4.73-2.73-4.13-7.55,1.34-10.71L574.18,302.54c5.47-3.16,13.82-3.5,18.56-.77l409.31,236.32c4.74,2.73,4.14,7.55-1.33,10.71L804.59,662C799.12,665.2,790.76,665.55,786,662.81Z" transform="translate(-138.266 -103.127)"/><path class="b" d="M940.16,326.73h0V325.4a1.3,1.3,0,0,0-.05-.44c-.05-.14,0-.14,0-.21v-.09a.594.594,0,0,0,0-.14,1.011,1.011,0,0,0-.07-.45l-.09-.41h0a1.672,1.672,0,0,0-.11-.44c-.04-.14-.07-.3-.11-.44v-.2a.322.322,0,0,0-.07-.24,1.387,1.387,0,0,1-.13-.42c-.04-.14-.08-.21-.11-.31v-.1a3.116,3.116,0,0,0-.15-.39c0-.13-.1-.25-.15-.38a1.1,1.1,0,0,0-.07-.16v-.07l-.06-.15-.18-.39-.18-.38h0v-.06l-.21-.4-.21-.38a2,2,0,0,1-.14-.25.412.412,0,0,1-.07-.11l-.37-.59-.13-.2h0c-.17-.24-.34-.49-.51-.72l-.08-.1-.07-.09a2.352,2.352,0,0,0-.19-.25l-.31-.39-.13-.15-.06-.07-.12-.14-.32-.36-.25-.26v-.05h0l-.36-.35-.37-.35h0l-.37-.32c-.13-.11-.26-.22-.4-.32h0v-.05l-.3-.22-.4-.28-.11-.08h0l-.24-.16-.41-.25-2.21-1.27-12.11,6.55,3,1.77c.13.09.27.17.4.27l.4.28.4.31.17.13.62.53h0c.2.18.4.38.6.57a.462.462,0,0,0,.07.07c.19.19.37.39.55.59l.08.09c.18.19.35.39.51.59l.09.11c.16.21.32.41.48.63s.15.22.23.33.19.26.28.4.21.32.31.48l.19.32c.06.09.11.19.16.28s.19.34.28.51a.821.821,0,0,1,.07.13c.12.24.24.47.35.71v.06l.33.75v.08c.1.25.19.5.28.75v.1c.08.25.16.49.23.74v.11c.07.25.13.5.19.75v.11q.09.38.15.75a.434.434,0,0,1,0,.11,6.478,6.478,0,0,0,.11.75.339.339,0,0,1,0,.1c0,.25.06.5.07.76s0,.25,0,.37v.91a3.443,3.443,0,0,1,0,.46v.88l-.11.69-42.33,258.5c-.2,1.23-5,9.1-3.89,8.47l11.45-9.7a13.391,13.391,0,0,0,4.54-8l41.08-253.91.5-3.08a1.023,1.023,0,0,1,.05-.38c.05-.13,0-.22,0-.33v-1Z" transform="translate(-138.266 -93.003)"/><path class="c" d="M920.3,337.791c5.46,3.4,9.12,11.232,8.18,17.474L886,638.79c-.94,6.264-6.12,8.564-11.57,5.162l-402.07-250.7c-5.46-3.4-9.13-11.221-8.19-17.474L506.64,92.238c.94-6.242,6.12-8.553,11.58-5.151Z" transform="translate(-138.266 0)"/><path class="d" d="M934.24,280.89,535.72,50.8h0l-.59-.35h0l-1.05-.6-.41-.21-.42-.2-.42-.18-.43-.16-.43-.14-.47-.13h-.07l-.4-.08h-.49l-.49-.05h-1.28l-.4.06h-.23a5.408,5.408,0,0,0-.79.21h-.14a7.48,7.48,0,0,0-1,.44l-11.7,6.81a5.27,5.27,0,0,1,.93-.44l.38-.12.47-.13.57-.1h.22a5.521,5.521,0,0,1,.82,0h.1a8.54,8.54,0,0,1,.86.07h.06a3.846,3.846,0,0,1,.93.19h.08a9.1,9.1,0,0,1,.93.3h.09c.33.13.66.27,1,.44l.41.21c.1.06.21.11.31.18l2.21,1.27h0L924,288.53a1.45,1.45,0,0,0,1.48,0l8.76-5.09a1.47,1.47,0,0,0,0-2.55ZM531.78,51.51Z" transform="translate(-138.266 0)"/><path class="b" d="M944.65,296.45v-.9a.13.13,0,0,1,0-.06v-.37a1.3,1.3,0,0,0-.05-.44v-.44c0-.04-.05-.3-.08-.44a1.25,1.25,0,0,0-.08-.42h0a1.655,1.655,0,0,0-.1-.44c-.04-.14-.07-.3-.12-.44v-.2a2.167,2.167,0,0,1-.22-.3c-.05-.14-.09-.28-.14-.42s-.07-.21-.11-.31v-.05h0l-.15-.39-.15-.38-.07-.16v-.07l-.06-.15-.18-.39c-.06-.13-.12-.26-.19-.38h0v-.06a3.819,3.819,0,0,0-.21-.4c-.06-.13-.14-.25-.21-.38l-.14-.25-.06-.11c-.12-.2-.25-.4-.38-.59l-.12-.2h0c-.16-.24-.33-.49-.51-.72a.857.857,0,0,0-.07-.1l-.07-.09a2.354,2.354,0,0,0-.19-.25l-.32-.39-.12-.15-.07-.07a1.712,1.712,0,0,0-.11-.14l-.33-.36-.25-.26h0l-.36-.35-.37-.35h0l-.37-.32c-.13-.11-.26-.22-.4-.32h-.05l-.3-.23-.4-.28-.11-.08h0l-.24-.16-.41-.25-9.74-5.62-11.95,7.22s10.26,5.36,10.39,5.45l.41.27.4.28.4.31.16.13.62.53h0c.21.18.41.38.61.57l.07.08c.19.18.37.38.55.58l.08.09.51.59.09.11c.16.21.32.41.48.63s.15.22.23.33l.28.4.3.48c.07.11.14.21.2.32l.16.28.28.51.07.13c.12.24.24.47.35.71v.06l.33.76v.07c.1.25.19.5.28.75v.1c.09.25.17.49.24.74a.555.555,0,0,0,0,.12c.07.24.13.49.19.74v.11q.09.38.15.75v.11a6.465,6.465,0,0,0,.11.75.337.337,0,0,1,0,.1,2.832,2.832,0,0,0,.07.76c.07.26,0,.25,0,.37v1.87a.763.763,0,0,1-.06.38l-.11.69L890.82,564.47c-.19,1.23-5,9.1-3.89,8.47l11.45-9.7a13.35,13.35,0,0,0,4.55-8L944,301.29l.5-3.08v-.71h0v-.05a.367.367,0,0,0,0-.11c0-.15,0-.3,0-.46v-.37Z" transform="translate(-138.266 -83.324)"/><path class="e" d="M924.74,307.2c5.46,3.4,9.12,11.221,8.18,17.474L890.45,608.2c-.94,6.253-6.12,8.564-11.58,5.162l-402.08-250.7c-5.45-3.4-9.12-11.232-8.18-17.474L511.08,61.648c.94-6.253,6.12-8.553,11.57-5.151Z" transform="translate(-138.266 0)"/><path class="f" d="M910.38,325.167c5.18,3.2,8.69,10.079,7.84,15.369L879.8,580.778c-.84,5.3-5.73,7-10.9,3.8L487.53,348.967c-5.18-3.2-8.69-10.079-7.84-15.38L518.1,93.3c.85-5.3,5.73-7,10.9-3.8Z" transform="translate(-138.266 0)"/><path class="e" d="M836.355,621.33l-.084-12.21-14.643,6.08-3.141-7.76L451.867,380.35c-4.418-2.74-13.189-2.39-18.287.77L274.755,478.89v-2.72l-24.131,12.57-3.383-1.47.457,12a5.575,5.575,0,0,0,2.8,4.6L632.017,740.76c4.409,2.74,12.2,2.71,17.3-.45L832.133,627.22c2.8-1.72,4.2-3.86,4.213-6Z" transform="translate(-133.484 -181.327)"/><path class="g" d="M631.795,724.87,250.3,488.56c-4.418-2.74-3.859-7.56,1.24-10.72L434.361,364.6c5.1-3.16,12.881-3.5,17.3-.77L833.143,600.15c4.418,2.73,3.859,7.56-1.24,10.71L649.093,724.1C644,727.26,636.213,727.61,631.795,724.87Z" transform="translate(-133.484 -125.602)"/><g class="h" transform="translate(261.01 272.467)"><path class="d" d="M472.51,407.61a3.09,3.09,0,0,1-2.7-.31L445,393c-.9-.52-1.14-1.22-.55-1.56l16.47-9.51a3.13,3.13,0,0,1,2.7.31l24.85,14.34c.89.52,1.14,1.22.54,1.57Z" transform="translate(-350.53 -381.756)"/><path class="d" d="M501.34,450.43a3.11,3.11,0,0,1-2.71-.31l-24.85-14.34c-.89-.52-1.13-1.21-.53-1.56l16.47-9.51a3.12,3.12,0,0,1,2.68.31l24.85,14.34c.91.53,1.14,1.22.56,1.56Z" transform="translate(-350.53 -381.756)"/><path class="d" d="M486.77,468.21a3.13,3.13,0,0,1-2.7-.32l-24.85-14.34c-.88-.51-1.15-1.21-.55-1.56l16.47-9.51a3.14,3.14,0,0,1,2.69.32l24.85,14.34c.9.52,1.14,1.22.56,1.55Z" transform="translate(-350.53 -381.756)"/><path class="d" d="M447.34,471.64a3.14,3.14,0,0,1-2.69-.31L419.8,457c-.89-.51-1.14-1.22-.55-1.56l16.47-9.51a3.16,3.16,0,0,1,2.7.31l24.85,14.34c.89.51,1.12,1.22.53,1.56Z" transform="translate(-350.53 -381.756)"/><path class="d" d="M379,461.66a3.09,3.09,0,0,1-2.7-.31L351.4,447c-.89-.52-1.14-1.22-.55-1.56l19.34-11.17a3.14,3.14,0,0,1,2.7.32l24.85,14.34c.89.51,1.13,1.22.55,1.56Z" transform="translate(-350.53 -381.756)"/><path class="d" d="M421.8,486.39c-.59.34-2,.07-3.21-.61L386,467c-1.16-.67-1.64-1.51-1-1.85L404.32,454c.58-.33,2-.06,3.2.61l32.55,18.79c1.19.68,1.64,1.51,1.06,1.85Z" transform="translate(-350.53 -381.756)"/><path class="d" d="M635.68,610a3.12,3.12,0,0,1-2.52-.42l-24.83-14.33c-.9-.53-1.24-1.18-.74-1.47l7.14-4.13a3.14,3.14,0,0,1,2.54.43l24.83,14.33c.9.52,1.22,1.17.73,1.46Z" transform="translate(-350.53 -381.756)"/><path class="d" d="M668.89,629.65a3,3,0,0,1-2.52-.42L641.54,614.9c-.91-.52-1.25-1.18-.75-1.46l7.15-4.13a3.12,3.12,0,0,1,2.53.43l24.84,14.33c.89.52,1.21,1.17.72,1.45Z" transform="translate(-350.53 -381.756)"/><path class="d" d="M704.09,649.51a3.12,3.12,0,0,1-2.49-.44l-24.84-14.34c-.9-.51-1.25-1.17-.78-1.44l6.89-4a3.12,3.12,0,0,1,2.5.45l24.83,14.33c.9.52,1.24,1.17.77,1.44Z" transform="translate(-350.53 -381.756)"/><path class="d" d="M682.44,622.07a3,3,0,0,1-2.49-.44L655.11,607.3c-.89-.51-1.25-1.17-.78-1.44l6.89-4a3.12,3.12,0,0,1,2.5.45l24.84,14.33c.89.52,1.23,1.16.76,1.44Z" transform="translate(-350.53 -381.756)"/><path class="d" d="M592.73,585a3.16,3.16,0,0,1-2.71-.33l-161.7-93.31c-.89-.51-1.15-1.22-.56-1.56l19.34-11.17a3.17,3.17,0,0,1,2.7.32l161.71,93.31c.89.52,1.14,1.23.56,1.57Z" transform="translate(-350.53 -381.756)"/><path class="d" d="M417.36,480.22a.555.555,0,0,1-.26-.07l-19-11c-.1-.06-.16-.13-.13-.15l1.21-.69a.37.37,0,0,1,.25.07l19,11c.11.06.16.13.12.15Z" transform="translate(-350.53 -381.756)"/><path class="d" d="M368.66,450a.16.16,0,0,1-.15,0l-8.06-4.65c-.05,0-.05-.07,0-.09l1.2-.69a.16.16,0,0,1,.15,0l8.07,4.65v.09Z" transform="translate(-350.53 -381.756)"/><path class="d" d="M481.4,491.28a3.14,3.14,0,0,1-2.7-.32l-24.85-14.34c-.88-.5-1.14-1.22-.55-1.56l16.47-9.51a3.16,3.16,0,0,1,2.7.32l24.85,14.34c.9.52,1.14,1.22.55,1.56Z" transform="translate(-350.53 -381.756)"/><path class="d" d="M515.62,511a3.18,3.18,0,0,1-2.69-.32l-24.85-14.33c-.89-.52-1.14-1.23-.56-1.57L504,485.3a3.15,3.15,0,0,1,2.71.32L531.55,500c.88.51,1.12,1.21.53,1.55Z" transform="translate(-350.53 -381.756)"/><path class="d" d="M549.83,530.77a3.14,3.14,0,0,1-2.69-.31l-24.85-14.34c-.89-.51-1.13-1.22-.54-1.56l16.47-9.51a3.14,3.14,0,0,1,2.69.31l24.85,14.34c.89.51,1.13,1.22.54,1.56Z" transform="translate(-350.53 -381.756)"/><path class="d" d="M584.05,550.52a3.11,3.11,0,0,1-2.69-.32l-24.85-14.34c-.9-.52-1.14-1.22-.56-1.56l16.47-9.51a3.15,3.15,0,0,1,2.71.32L600,539.45c.89.51,1.13,1.21.54,1.56Z" transform="translate(-350.53 -381.756)"/><path class="d" d="M618.27,570.27a3.16,3.16,0,0,1-2.71-.33l-24.84-14.33c-.89-.52-1.13-1.22-.54-1.56l16.46-9.51a3.16,3.16,0,0,1,2.7.31l24.84,14.33c.9.52,1.15,1.23.56,1.57Z" transform="translate(-350.53 -381.756)"/><path class="d" d="M652.49,590a3.13,3.13,0,0,1-2.7-.32L625,575.34c-.9-.51-1.14-1.22-.55-1.56l16.46-9.51a3.15,3.15,0,0,1,2.71.32l24.84,14.33c.89.52,1.14,1.22.55,1.56Z" transform="translate(-350.53 -381.756)"/><path class="d" d="M729.56,634.47a3.16,3.16,0,0,1-2.7-.31l-67.7-39.07c-.89-.52-1.14-1.22-.55-1.56L675.08,584a3.12,3.12,0,0,1,2.7.31l67.7,39.07c.9.52,1.14,1.22.55,1.56Z" transform="translate(-350.53 -381.756)"/><path class="d" d="M520.82,487.84a3.07,3.07,0,0,1-2.69-.31l-24.85-14.34c-.89-.52-1.14-1.21-.55-1.55l16.47-9.52a3.11,3.11,0,0,1,2.69.32l24.85,14.34c.9.52,1.13,1.21.55,1.55Z" transform="translate(-350.53 -381.756)"/><path class="d" d="M555,507.59a3.1,3.1,0,0,1-2.69-.31l-24.86-14.35c-.88-.51-1.13-1.2-.54-1.55l16.47-9.51a3.11,3.11,0,0,1,2.68.31L571,496.53c.89.51,1.14,1.21.55,1.55Z" transform="translate(-350.53 -381.756)"/><path class="d" d="M589.26,527.34a3.16,3.16,0,0,1-2.7-.32l-24.84-14.34c-.88-.51-1.16-1.21-.56-1.56l16.47-9.51a3.17,3.17,0,0,1,2.7.32l24.84,14.34c.89.51,1.14,1.22.56,1.55Z" transform="translate(-350.53 -381.756)"/><path class="d" d="M623.47,547.08a3.1,3.1,0,0,1-2.69-.31l-24.85-14.34c-.89-.52-1.14-1.21-.55-1.56l16.47-9.51a3.11,3.11,0,0,1,2.69.32L639.39,536c.89.52,1.13,1.22.55,1.56Z" transform="translate(-350.53 -381.756)"/><path class="d" d="M657.7,566.82a3.11,3.11,0,0,1-2.69-.32l-24.86-14.34c-.9-.52-1.14-1.21-.54-1.55l16.47-9.52a3.09,3.09,0,0,1,2.68.32l24.86,14.34c.89.51,1.13,1.22.55,1.55Z" transform="translate(-350.53 -381.756)"/><path class="d" d="M691.91,586.56a3.13,3.13,0,0,1-2.69-.31l-24.84-14.34c-.91-.52-1.16-1.22-.56-1.56l16.47-9.52a3.18,3.18,0,0,1,2.7.33l24.84,14.33c.89.52,1.13,1.22.55,1.55Z" transform="translate(-350.53 -381.756)"/><path class="d" d="M726.12,606.3a3.1,3.1,0,0,1-2.69-.31l-24.86-14.34c-.88-.52-1.13-1.21-.53-1.55l16.47-9.52a3.15,3.15,0,0,1,2.68.31L742,595.24c.89.51,1.14,1.21.55,1.55Z" transform="translate(-350.53 -381.756)"/><path class="d" d="M535.4,470.07a3.11,3.11,0,0,1-2.71-.31l-24.85-14.34c-.88-.51-1.12-1.21-.52-1.56l16.46-9.51a3.11,3.11,0,0,1,2.68.31L551.31,459c.9.52,1.14,1.22.56,1.56Z" transform="translate(-350.53 -381.756)"/><path class="d" d="M569.61,489.81a3.11,3.11,0,0,1-2.7-.3l-24.85-14.34c-.89-.52-1.14-1.22-.54-1.57L558,464.09a3.11,3.11,0,0,1,2.69.32l24.85,14.34c.88.51,1.13,1.21.55,1.55Z" transform="translate(-350.53 -381.756)"/><path class="d" d="M603.83,509.56a3.11,3.11,0,0,1-2.71-.31l-24.85-14.34c-.89-.51-1.13-1.21-.53-1.56l16.47-9.51a3.11,3.11,0,0,1,2.68.31l24.85,14.34c.9.52,1.14,1.22.56,1.56Z" transform="translate(-350.53 -381.756)"/><path class="d" d="M638,529.3a3.12,3.12,0,0,1-2.7-.3l-24.85-14.35c-.9-.51-1.14-1.21-.54-1.56l16.47-9.51a3.11,3.11,0,0,1,2.69.32L654,518.24c.9.52,1.13,1.21.54,1.55Z" transform="translate(-350.53 -381.756)"/><path class="d" d="M672.26,549a3.13,3.13,0,0,1-2.69-.31l-24.85-14.34c-.9-.52-1.14-1.21-.54-1.56l16.47-9.51a3.14,3.14,0,0,1,2.69.31L688.19,538c.88.5,1.12,1.2.54,1.54Z" transform="translate(-350.53 -381.756)"/><path class="d" d="M706.49,568.79a3.17,3.17,0,0,1-2.72-.32l-24.85-14.34c-.88-.51-1.13-1.21-.53-1.56l16.47-9.51a3.17,3.17,0,0,1,2.69.31l24.84,14.34c.91.52,1.15,1.22.56,1.56Z" transform="translate(-350.53 -381.756)"/><path class="d" d="M740.7,588.53a3.15,3.15,0,0,1-2.7-.31l-24.86-14.34c-.89-.52-1.13-1.21-.53-1.56l16.47-9.51a3.14,3.14,0,0,1,2.69.31l24.85,14.34c.88.52,1.13,1.22.54,1.55Z" transform="translate(-350.53 -381.756)"/><path class="d" d="M467.13,430.69a3.18,3.18,0,0,1-2.71-.31l-42.14-24.32c-.89-.52-1.14-1.22-.54-1.56l16.47-9.5a3.21,3.21,0,0,1,2.7.32L483,419.62c.9.52,1.14,1.22.55,1.55Z" transform="translate(-350.53 -381.756)"/><path class="d" d="M797.58,595.18a3.13,3.13,0,0,1-2.7-.32l-42.13-24.31c-.88-.51-1.14-1.22-.54-1.56l16.46-9.51a3.12,3.12,0,0,1,2.7.31l42.13,24.32c.9.51,1.14,1.21.55,1.56Z" transform="translate(-350.53 -381.756)"/><path class="d" d="M452.54,448.46a3.11,3.11,0,0,1-2.69-.32l-50.23-29c-.9-.51-1.15-1.21-.55-1.55l16.47-9.52a3.18,3.18,0,0,1,2.69.32l50.23,29c.9.52,1.14,1.22.55,1.55Z" transform="translate(-350.53 -381.756)"/><path class="d" d="M413.13,451.9a3.13,3.13,0,0,1-2.7-.32l-33.49-19.32c-.9-.52-1.14-1.22-.55-1.56l16.47-9.52a3.13,3.13,0,0,1,2.7.32l33.49,19.33c.9.51,1.14,1.22.55,1.56Z" transform="translate(-350.53 -381.756)"/><path class="d" d="M506.72,427.36A3.16,3.16,0,0,1,504,427l-24.83-14.33c-.89-.52-1.14-1.22-.55-1.56l16.47-9.51a3.12,3.12,0,0,1,2.7.31l24.83,14.33c.91.53,1.15,1.22.55,1.57Z" transform="translate(-350.53 -381.756)"/><path class="d" d="M540.79,447a3.15,3.15,0,0,1-2.71-.32l-24.85-14.34c-.89-.51-1.14-1.21-.54-1.56l16.46-9.51a3.13,3.13,0,0,1,2.7.32l24.85,14.34c.9.51,1.15,1.21.55,1.56Z" transform="translate(-350.53 -381.756)"/><path class="d" d="M575,466.74a3.1,3.1,0,0,1-2.69-.31l-24.85-14.34c-.89-.52-1.14-1.22-.54-1.56L563.37,441a3.16,3.16,0,0,1,2.7.31l24.84,14.34c.9.52,1.14,1.21.54,1.56Z" transform="translate(-350.53 -381.756)"/><path class="d" d="M609.22,486.49a3.15,3.15,0,0,1-2.71-.32l-24.83-14.33c-.9-.52-1.14-1.22-.55-1.56l16.46-9.51a3.12,3.12,0,0,1,2.71.32l24.83,14.33c.89.51,1.15,1.21.55,1.56Z" transform="translate(-350.53 -381.756)"/><path class="d" d="M643.42,506.23a3.1,3.1,0,0,1-2.69-.31l-24.84-14.34c-.91-.52-1.15-1.22-.55-1.56l16.46-9.51a3.1,3.1,0,0,1,2.7.32l24.85,14.33c.9.52,1.13,1.21.53,1.56Z" transform="translate(-350.53 -381.756)"/><path class="d" d="M677.66,526a3.15,3.15,0,0,1-2.7-.31L650.1,511.31c-.89-.51-1.13-1.21-.53-1.55L666,500.25a3.09,3.09,0,0,1,2.69.3l24.86,14.35c.88.51,1.13,1.21.54,1.56Z" transform="translate(-350.53 -381.756)"/><path class="d" d="M711.87,545.71a3.12,3.12,0,0,1-2.7-.31l-24.85-14.34c-.9-.52-1.15-1.22-.55-1.57L700.23,520a3.15,3.15,0,0,1,2.71.32l24.85,14.34c.89.52,1.14,1.22.54,1.56Z" transform="translate(-350.53 -381.756)"/><path class="d" d="M746.08,565.45a3.13,3.13,0,0,1-2.69-.3L718.52,550.8c-.88-.51-1.12-1.21-.53-1.56l16.46-9.51a3.13,3.13,0,0,1,2.69.31L762,554.39c.89.51,1.12,1.21.53,1.55Z" transform="translate(-350.53 -381.756)"/><path class="d" d="M766,582.86a3.871,3.871,0,0,0-1.45-.47,1.94,1.94,0,0,0-1.22.16l-16.47,9.52a.56.56,0,0,0-.3.71,1.87,1.87,0,0,0,.82.84l6.49,3.74-21.59,12.48a.56.56,0,0,0-.28.72,1.79,1.79,0,0,0,.83.84l16.74,9.66a3.87,3.87,0,0,0,1.46.48,2,2,0,0,0,1.24-.16l39.15-22.62a.54.54,0,0,0,.27-.71,1.77,1.77,0,0,0-.83-.85Z" transform="translate(-350.53 -381.756)"/><path class="d" d="M408.68,443.88a.5.5,0,0,1-.26-.08l-19-11c-.11-.06-.16-.13-.13-.15l1.2-.69a.39.39,0,0,1,.26.07l19,11c.1.06.16.13.12.15Z" transform="translate(-350.53 -381.756)"/></g><line class="i" x2="106.18" y2="62.53" transform="translate(574.02 315.538)"/><path class="j" d="M713.23,408.69l-30.72-17.74,9.05-52.18,30.72,17.74Z" transform="translate(-97.742 -72.268)"/><path class="c" d="M750.88,430.43l-30.72-17.74,5.92-34.12,30.71,17.74Z" transform="translate(-102.8 -78.923)"/><path class="k" d="M789.68,452.83l-30.71-17.74,11.85-68.41,30.72,17.74Z" transform="translate(-109.008 -79.891)"/><path class="a" d="M521.58,513.25c42.86-24.74,42.64-65-.49-89.89l-20.24,11.69c-42.2-14.18-97-10.93-133,9.83-42.86,24.74-42.64,65,.49,89.88s112.83,25,155.69.28L446,490l17.63-10.18Z" transform="translate(-58.966 -97.904)"/><path class="l" d="M502.67,524.19c-42.86,24.74-112.56,24.62-155.69-.28s-43.34-65.15-.48-89.89,112.56-24.62,155.68.28l-77.6,44.8Z" transform="translate(-53.219 -95.694)"/><path class="m" d="M424.45,479.18l.13-.08,78.09,45.08c-18.38,10.62-41.26,17.2-66.58,18.18l-2.28.11-.73-15.5C430.06,511.45,425.69,488.47,424.45,479.18Z" transform="translate(-63.307 -101.349)"/><path class="m" d="M502.18,508l.49,16.19L472.36,510.8Z" transform="translate(-66.99 -101.357)"/><path class="n" d="M502.43,490s43.17-22.44,32-60.11-32,46.88-32,46.88Z" transform="translate(-71.514 -89.627)"/><path class="o" d="M347,523.91c-43.12-24.9-43.34-65.15-.48-89.89L424.6,479.1Z" transform="translate(-48.58 -95.031)"/><path class="p" d="M502.18,434.3c-43.12-24.9-112.83-25-155.68-.28l78.08,45.08Z" transform="translate(-56.392 -87.926)"/><path class="o" d="M424.44,479.18l.14-.08L346.5,434c-10.65,6.14-26.6,19.21-32,28.77v15.28C350.05,479.73,399.14,478.05,424.44,479.18Z" transform="translate(-48.577 -89.725)"/><path class="q" d="M502.67,508.65c-42.86,24.74-112.56,24.62-155.69-.28s-43.34-65.14-.48-89.89,112.56-24.62,155.68.28l-77.6,44.81Z" transform="translate(-53.219 -92.115)"/><path class="r" d="M347,508.37c-43.12-24.9-43.34-65.14-.48-89.89l78.08,45.09Z" transform="translate(-48.58 -91.628)"/><path class="k" d="M502.18,418.76c-43.12-24.9-112.83-25-155.68-.28l78.08,45.09Z" transform="translate(-56.392 -84.639)"/><path class="j" d="M501.94,386.84c43.13,24.9,43.35,65.15.49,89.89l-78.09-45.08Z" transform="translate(-65.544 -84.7)"/><path class="e" d="M424.44,463.65l.14-.08L346.5,418.48c-19.36,11.18-29.93,25.51-31.73,40.17C350.33,460.32,399.14,462.51,424.44,463.65Z" transform="translate(-48.604 -86.515)"/><path class="s" d="M424.44,463.65l.14-.08,78.09,45.08c-19.35,11.17-44.18,17.28-69.57,18.31C430.21,506.43,426.41,478.26,424.44,463.65Z" transform="translate(-63.306 -98.066)"/><path class="n" d="M424.34,431.65v11.22l78.09,47.09V476.73Z" transform="translate(-63.281 -90.725)"/><path class="l" d="M347,523.91V508.37a115.243,115.243,0,0,0,19.17,8.87Z" transform="translate(-48.656 -101.351)"/><path class="t" d="M575.47,55.88a6.85,6.85,0,0,0-3.42-6.79L487.14.51c-2.36-1.35-4.6.07-5,3.18l-9.69,74.46c-.4,3.1,1.18,6.71,3.54,8.06l79.5,45.48a6.87,6.87,0,0,0,10.38-4.88Z" transform="translate(-72.402 0)"/><path class="e" d="M575.51,55.56a6.36,6.36,0,0,0-3.18-6.31L487.83.91c-2.74-1.57-5.25-.68-5.59,2L481.05,12l93.14,53.29Z" transform="translate(-73.032 0)"/><path class="u" d="M493.23,12.3c-.16,1.2-1.29,1.61-2.53.9a3.88,3.88,0,0,1-2-3.47c.16-1.21,1.29-1.61,2.53-.9a3.9,3.9,0,0,1,2,3.47Z" transform="translate(-67.522 0)"/><path class="v" d="M502.29,17.48c-.16,1.21-1.29,1.61-2.53.9a3.88,3.88,0,0,1-2-3.47c.16-1.2,1.29-1.61,2.53-.9a3.9,3.9,0,0,1,2,3.47Z" transform="translate(-68.774 0)"/><path class="w" d="M511.34,22.66c-.15,1.21-1.28,1.62-2.52.91a3.89,3.89,0,0,1-2-3.47c.16-1.21,1.29-1.61,2.53-.91a3.88,3.88,0,0,1,1.99,3.47Z" transform="translate(-70.025 0)"/><path class="x" d="M558.24,64.86,500.09,32.08a3.13,3.13,0,0,0-4.4,2l-6,38.07A3.58,3.58,0,0,0,491.54,76l6.22,3.5h0l48.65,27.42h0l3.64,2a2.81,2.81,0,0,0,4-1.83l6.08-38.53A3.51,3.51,0,0,0,558.24,64.86Z" transform="translate(-72.428 0)"/><path class="c" d="M544.57,110.68,486.11,77.73A3.61,3.61,0,0,1,484.24,74l6-38.07a3.13,3.13,0,0,1,4.41-2l58.15,32.7a3.52,3.52,0,0,1,1.83,3.69l-6.09,38.53a2.81,2.81,0,0,1-3.97,1.83Z" transform="translate(-71.62 0)"/><path class="y" d="M492.3,81.25l10.11-8.17c2.39-1.93,6-1.39,6.8,1l5.62,16.06,11.36-11.51c2.38-2.41,6.57-1.89,7.28.9l7.47,29.11Z" transform="translate(-71.156 0)"/><path class="u" d="M511.73,56.67c-.42,2.69-2.49,3.89-4.63,2.69a7.26,7.26,0,0,1-3.09-7c.43-2.68,2.5-3.89,4.63-2.69a7.26,7.26,0,0,1,3.09,7Z" transform="translate(-69.86 0)"/><path class="z" d="M914.92,494.85l-48.77-26.4c-2.71-1.47-4.37-6-3.7-10.07L881.65,341c.67-4.09,3.42-6.21,6.13-4.74l48.77,26.4c2.71,1.47,4.37,6,3.7,10.07l-19.2,117.4C920.38,494.2,917.63,496.32,914.92,494.85Z" transform="translate(-138.266 -80.975)"/><path class="k" d="M899,375.15l-10.48-5.68c-2.13-1.15-3.43-4.68-2.91-7.89h0c.53-3.2,2.68-4.86,4.8-3.71l10.49,5.68c2.13,1.15,3.43,4.68,2.9,7.88h0C903.31,374.64,901.16,376.3,899,375.15Z" transform="translate(-138.266 -71.487)"/><path class="c" d="M910.18,403.11l-15.81-8.56c-1.68-.91-2.71-3.7-2.3-6.24h0c.42-2.53,2.12-3.85,3.8-2.94l15.81,8.56c1.68.91,2.71,3.71,2.3,6.24h0C913.56,402.71,911.86,404,910.18,403.11Z" transform="translate(-138.266 -77.029)"/><path class="aa" d="M920,431.32l-29.06-15.73c-1.69-.91-2.71-3.71-2.3-6.24h0c.42-2.54,2.12-3.85,3.8-2.94l29.06,15.73c1.68.91,2.71,3.7,2.29,6.24h0C923.37,430.91,921.67,432.23,920,431.32Z" transform="translate(-138.266 -81.947)"/><path class="c" d="M903.3,445.18l-15.81-8.56c-1.69-.91-2.71-3.7-2.3-6.24h0c.41-2.53,2.12-3.85,3.8-2.94L904.8,436c1.68.91,2.71,3.71,2.29,6.24h0C906.68,444.78,905,446.09,903.3,445.18Z" transform="translate(-138.266 -85.445)"/><path class="k" d="M886.4,457.69l-10.82-5.87c-1.69-.91-2.71-3.7-2.3-6.23h0c.41-2.54,2.12-3.86,3.8-2.94l10.83,5.86c1.68.91,2.71,3.7,2.29,6.24h0C889.79,457.28,888.09,458.6,886.4,457.69Z" transform="translate(-138.266 -88.199)"/><path class="ab" d="M566.88,190.2,529.4,168.53l7.72-43.55,37.47,21.68Z" transform="translate(-76.243 -16.938)"/><path class="ab" d="M604.36,211.88,566.88,190.2l7.71-43.54,37.48,21.67Z" transform="translate(-81.641 -31.098)"/><path class="ab" d="M641.83,233.55l-37.47-21.67,7.71-43.55,37.47,21.68Z" transform="translate(-87.038 -35.693)"/><path class="ab" d="M679.31,255.22l-37.48-21.67,7.71-43.54,37.48,21.67Z" transform="translate(-92.435 -40.289)"/><path class="ab" d="M559.17,233.75l-37.48-21.68,7.71-43.54,37.48,21.67Z" transform="translate(-75.133 -35.735)"/><path class="ab" d="M596.64,255.42l-37.47-21.67,7.71-43.55,37.48,21.68Z" transform="translate(-80.531 -40.33)"/><path class="ab" d="M671.6,298.77l-37.48-21.68,7.71-43.54,37.48,21.67Z" transform="translate(-91.325 -49.522)"/><line class="ab" x1="7.71" y2="43.54" transform="translate(442.739 168.317)"/><path class="ab" d="M588.93,298.96l-37.47-21.67,7.71-43.54,37.47,21.67Z" transform="translate(-79.419 -49.564)"/><path class="ab" d="M626.41,320.64l-37.48-21.68,7.71-43.54,37.48,21.67Z" transform="translate(-84.817 -54.159)"/><path class="ab" d="M663.88,342.31l-37.47-21.67,7.71-43.55,37.48,21.68Z" transform="translate(-90.214 -58.754)"/><line class="ab" x1="7.71" y2="43.55" transform="translate(436.097 202.873)"/><path class="ab" d="M543.74,320.83l-37.47-21.67,7.71-43.54,37.48,21.67Z" transform="translate(-72.912 -54.201)"/><path class="ab" d="M581.22,342.51l-37.48-21.68,7.72-43.54,37.47,21.67Z" transform="translate(-78.308 -58.797)"/><path class="ab" d="M618.7,364.18l-37.48-21.67,7.71-43.55,37.48,21.68Z" transform="translate(-83.706 -63.392)"/><path class="ab" d="M656.17,385.86,618.7,364.18l7.71-43.54,37.47,21.67Z" transform="translate(-89.103 -67.989)"/><path class="ac" d="M513.98,282.56l22.74-18.72,34.66,11.59,23.85-42.65,19.93,23.37,52.06-35.65" transform="translate(-83.41 -46.567)"/><path class="ac" d="M659.4,217.52l10.07,1.58-3.05,9.34" transform="translate(-91.614 -43.126)"/><path class="e" d="M726.22,89.82c-3.69,26.82,12.8,58.39,36.84,70.51s46.51.21,50.2-26.61-12.81-58.39-36.85-70.51S729.9,63,726.22,89.82Zm72.7,36.67c-2.47,18-17.54,26-33.66,17.84S738.08,115,740.55,97.05s17.55-26,33.66-17.84S801.39,108.51,798.92,126.49Z" transform="translate(-109.401 0)"/><path class="k" d="M776.41,63.21c-14.71-7.42-28.82-5.82-38.41,2.67l10.66,14.94c6.42-5.54,15.79-6.54,25.55-1.61C787.55,85.94,797.42,101.6,799,117l14.45,3.17C811.29,97,796.48,73.33,776.41,63.21Z" transform="translate(-109.744 0)"/><path class="ad" d="M732.72,127.5l12.35-4.85c-3.88-8.13-5.67-17.21-4.52-25.6,1.05-7.59,4.34-13.4,9-17L740,64.28c-7.13,5.3-12.17,14-13.75,25.54C724.52,102.16,727.1,115.5,732.72,127.5Z" transform="translate(-102.242 0)"/><path class="ad" d="M857.76,129.19,836.43,117c-1.91-1.09-3.26-4.22-3-7h0c.27-2.74,2-4.09,4-3l21.33,12.2c1.91,1.09,3.25,4.22,3,7h0C861.45,128.93,859.67,130.28,857.76,129.19Z" transform="translate(-145.104 7.173)"/><path class="ad" d="M851.09,157.05l-21.33-12.2c-1.91-1.09-3.26-4.22-3-7h0c.27-2.74,2.05-4.09,4-3l21.33,12.2c1.91,1.09,3.25,4.23,3,7h0C854.78,156.8,853,158.14,851.09,157.05Z" transform="translate(-137.415 -17.204)"/><path class="ad" d="M844.42,184.91l-21.33-12.2c-1.91-1.09-3.26-4.22-3-7h0c.27-2.74,2-4.09,4-3L845.39,175c1.91,1.09,3.25,4.23,3,7h0C848.11,184.66,846.33,186,844.42,184.91Z" transform="translate(-132.066 -32.655)"/><path class="e" d="M844.87,415.21,823.53,403c-1.91-1.09-3.25-4.22-3-7h0c.27-2.74,2.05-4.09,4-3l21.34,12.2c1.91,1.09,3.25,4.23,3,7h0C848.56,415,846.78,416.3,844.87,415.21Z" transform="translate(-132.085 -78.982)"/><path class="e" d="M838.2,443.07l-21.34-12.2c-1.91-1.09-3.25-4.22-3-7h0c.27-2.74,2-4.09,4-3l21.34,12.2c1.91,1.09,3.25,4.23,3,7h0C841.89,442.82,840.11,444.16,838.2,443.07Z" transform="translate(-131.821 -84.586)"/><path class="e" d="M831.53,470.93l-21.34-12.2c-1.91-1.09-3.25-4.22-3-7h0c.27-2.74,2-4.09,3.95-3L832.5,461c1.91,1.09,3.25,4.23,3,7h0C835.22,470.68,833.44,472,831.53,470.93Z" transform="translate(-131.556 -90.19)"/><path class="ae" d="M738.84,287.55l-21.33-12.2c-1.91-1.09-3.26-4.23-3-7h0c.27-2.74,2.05-4.08,4-3l21.33,12.2c1.91,1.09,3.25,4.22,3,7h0C742.53,287.29,740.75,288.64,738.84,287.55Z" transform="translate(-101.128 -53.302)"/><path class="ae" d="M733.5,312.71l-21.33-12.2c-1.91-1.1-3.25-4.23-3-7h0c.27-2.74,2.05-4.09,4-3l21.33,12.2c1.91,1.09,3.26,4.23,3,7h0C737.19,312.45,735.41,313.8,733.5,312.71Z" transform="translate(-100.373 -58.363)"/><path class="ae" d="M774.48,308.76l-21.33-12.2c-1.91-1.09-3.25-4.23-3-7h0c.27-2.74,2.05-4.08,4-3l21.34,12.2c1.91,1.09,3.25,4.22,3,7h0C778.17,308.5,776.39,309.85,774.48,308.76Z" transform="translate(-106.174 -57.569)"/><path class="ae" d="M769.15,333.92l-21.34-12.2c-1.91-1.1-3.25-4.23-3-7h0c.26-2.74,2-4.09,3.95-3L770.12,324c1.91,1.09,3.25,4.23,3,7h0C772.84,333.66,771.06,335,769.15,333.92Z" transform="translate(-105.415 -62.629)"/><path class="ae" d="M763.45,356.5l-21.34-12.2c-1.91-1.09-3.25-4.22-3-7h0c.26-2.74,2-4.09,4-3l21.34,12.2c1.91,1.09,3.25,4.22,3,7h0C767.13,356.24,765.35,357.59,763.45,356.5Z" transform="translate(-104.611 -67.172)"/><path class="ae" d="M810.13,330l-21.34-12.2c-1.91-1.09-3.25-4.23-3-7h0c.27-2.74,2.05-4.08,4-3L811.1,320c1.91,1.09,3.25,4.22,3,7h0C813.82,329.71,812,331.06,810.13,330Z" transform="translate(-111.215 -61.84)"/><path class="ae" d="M804.79,355.13l-21.33-12.2c-1.91-1.1-3.26-4.23-3-7h0c.27-2.74,2-4.09,4-3l21.33,12.2c1.91,1.09,3.25,4.23,3,7h0C808.48,354.87,806.7,356.22,804.79,355.13Z" transform="translate(-110.463 -66.896)"/><path class="af" d="M461.67,94.07,393.96,52.78,376.24,187.1l89.23,54.41L478.8,140.47Z" transform="translate(-57.629 0)"/><path class="ag" d="M459.07,226.25l-89.23-54.41L387.56,37.52,455.27,78.8l17.13,46.41Z" transform="translate(-56.649 0)"/><path class="af" d="M455.27,78.8l-4.4,33.28,21.53,13.13Z" transform="translate(-63.372 0)"/><path class="ah" d="M402.06,109.44l-4.83-2.94c-2.06-1.26-3.42-4.73-3-7.73h0c.39-3,2.4-4.42,4.46-3.16l4.83,2.94c2.05,1.26,3.41,4.73,3,7.73h0C406.12,109.27,404.12,110.7,402.06,109.44Z" transform="translate(-54.893 0)"/><path class="ai" d="M447.92,137.41l-33.31-20.32c-2.06-1.25-3.42-4.73-3-7.72h0c.39-3,2.4-4.42,4.46-3.17l33.31,20.32c2.06,1.25,3.42,4.73,3,7.73h0C452,137.24,450,138.67,447.92,137.41Z" transform="translate(-59.006 7.221)"/><path class="aj" d="M399.15,131.53l-4.84-2.95c-2.05-1.25-3.41-4.73-3-7.73h0c.4-3,2.4-4.42,4.46-3.16l4.83,3c2.06,1.25,3.42,4.73,3,7.72h0C403.21,131.36,401.2,132.78,399.15,131.53Z" transform="translate(-54.487 7.783)"/><path class="ak" d="M445,159.5l-33.32-20.32c-2.05-1.26-3.41-4.73-3-7.73h0c.4-3,2.4-4.42,4.46-3.16l33.32,20.31c2.05,1.26,3.41,4.74,3,7.73h0C449.07,159.32,447.07,160.75,445,159.5Z" transform="translate(-58.587 -16.555)"/><path class="al" d="M396.23,153.61l-4.83-3c-2.06-1.25-3.42-4.73-3-7.72h0c.39-3,2.4-4.42,4.46-3.17l4.83,2.95c2.06,1.25,3.42,4.73,3,7.73h0C400.29,153.44,398.29,154.86,396.23,153.61Z" transform="translate(-54.081 9.246)"/><path class="am" d="M442.1,181.58l-33.32-20.32c-2.06-1.25-3.42-4.73-3-7.72h0c.39-3,2.4-4.42,4.46-3.17l33.31,20.32c2.06,1.25,3.42,4.73,3,7.72h0C446.16,181.41,444.15,182.83,442.1,181.58Z" transform="translate(-58.17 -30.496)"/><path class="an" d="M459.65,198.29c2.77-12-2.51-27.29-11.78-34.17-4.27-3.17-8.63-4-12.37-2.8h0a10,10,0,0,0-1.48.6l-9,4h4.31a20.141,20.141,0,0,0-3.26,7.46c-2.76,12,2.52,27.28,11.79,34.16a17,17,0,0,0,5.69,2.86l.64,2.58,6.23-2.69c.34-.12.67-.25,1-.4h.11C455.32,208.07,458.31,204.11,459.65,198.29Z" transform="translate(-60.591 -33.536)"/><ellipse class="ao" cx="16.67" cy="25.6" rx="16.67" ry="25.6" transform="translate(352.25 135.738) rotate(-16.09)"/><path class="c" d="M421.16,177l5.19,21.62.73,3c.63,2.65,4.37,4.5,6.74,2.74l11.68-8.66c1.92-1.42,3.09-4,1.64-6.28-1.22-1.9-4.21-3.17-6.27-1.64l-11.68,8.66,6.74,2.74-5.19-21.62-.73-3a4.63,4.63,0,0,0-5.64-3.21,4.7,4.7,0,0,0-3.21,5.65Z" transform="translate(-59.493 -34.899)"/><ellipse class="a" cx="16.29" cy="32.79" rx="16.29" ry="32.79" transform="translate(255.824 323.557) rotate(-88.98)"/><path class="ap" d="M317.88,269.86a5.83,5.83,0,0,0,1.81.68c1.51.22,3.14-.7,4.64-1.58a1.4,1.4,0,0,0,.39-.3,1.11,1.11,0,0,0,.08-1c-.54-1.84-1.42-1.8-2.69-2.86-.57-.48-1.08-1-1.65-1.53a16.921,16.921,0,0,0-2.91-1.9h0c-1.23-.68-5.7-3-6.61.33a3.42,3.42,0,0,0,.45,3.34,9,9,0,0,0,2.45,2.46,36.8,36.8,0,0,0,4.04,2.36Z" transform="translate(-43.346 -51.52)"/><path class="ap" d="M324.23,266.62a14,14,0,0,0-1.29-3,4.78,4.78,0,0,0-2.22-1.83c-1.76-.7-4.71-1.7-5.68-1-1.26.87,0,2.34.81,3.24a16.2,16.2,0,0,0,6.34,3.85.8.8,0,0,0,.87-.14c.09.19-.7-.33-.62-.13C322.92,268.81,324.71,267.83,324.23,266.62Z" transform="translate(-43.685 -51.454)"/><path class="aq" d="M323.79,266.01l2.08,2.18-4.04,4.74-2.38-2.42Z" transform="translate(-44.221 -52.489)"/><path class="e" d="M309.32,379l9.43-7.2,5.5-.93c1.82,7.16,1,6.29-1.09,8.12L315,384.12c-4.32,2.07-5.7,2.33-8.21,1.23h0C305.21,383.73,306.65,381.63,309.32,379Z" transform="translate(-42.923 -73.901)"/><path class="e" d="M354.07,374l1.27-11.79,3.1-4.64c6.45,3.61,5.25,3.61,5.15,6.39l-1.94,9.47c-1.47,4.56-2.23,5.74-4.76,6.8h0C354.67,380.26,354.13,377.76,354.07,374Z" transform="translate(-49.173 -71.903)"/><path class="ar" d="M315.24,243.8a138.839,138.839,0,0,1-14.12,24c-2.67,3.59-10-1.83-7.36-5.42A129.28,129.28,0,0,0,307,240c1.89-4,10.18-.27,8.27,3.79Z" transform="translate(-41.245 -48.388)"/><path class="ap" d="M319.87,297.67c-.34,24.84.95,49.16,5.1,73.64,1,5.73-7.8,8.2-8.78,2.42a416.385,416.385,0,0,1-5.43-76.06C310.84,291.82,319.95,291.8,319.87,297.67Z" transform="translate(-43.351 -63.697)"/><path class="ap" d="M338.29,304.92c1.64,10.86,1.18,22.11,3.25,32.87s9.55,16,19,20.33c5.32,2.44.7,10.29-4.59,7.86-10.21-4.69-19.16-11.31-22.42-22.51-3.37-11.54-2.25-24.29-4-36.13-.87-5.73,7.9-8.2,8.78-2.42Z" transform="translate(-46.875 -63.924)"/><path class="e" d="M340.65,300.56c-.92,12.8-9.11,14.09-17.37,9.32s-12.85-15.63-12.85-25.17c0,0,4.59-14.15,12.85-9.38S341.72,285.7,340.65,300.56Z" transform="translate(-44.025 -56.22)"/><path class="ar" d="M312.49,247.68l-2.33,3.76s.25,30.07.56,32.46c0,0,3.53,7.52,23.83-.26l8.53-25.05Z" transform="translate(-44.105 -50.844)"/><path class="ar" d="M343.08,262.56c.74-.46,3.4.23,3.4.23.52-4.47,5-5.75-1.39-13-1-1.1-15.88-8.31-23.87-9.75-3.87-.7-11.64-3.75-13.21-.14-.91,2.12,2.15,11.49,2.15,11.49-.38,8.2,3.26-2.57,3.83,2l-.06-.33s1,7.65,1.74,13.57c.46,3.7.79,6.37.83,6.75h0l13.85,10.93,7.29-13.17h0Z" transform="translate(-44.126 -49.298)"/><path class="ap" d="M322.5,240s-6.92,7.15-.92,12.22,16.24-6.26,16.24-6.26C332.45,242.57,327.28,240.29,322.5,240Z" transform="translate(-44.726 -47.732)"/><path class="e" d="M310.42,284.72l-4.91,42.57a3,3,0,0,0,.42,1.64c1.88,3.16,11.42,11.44,32.24,6.79,2.4-.54,4.92-.72,4.91-2.71l-2.4-36.24L327.49,299Z" transform="translate(-43.652 -59.397)"/><path class="ap" d="M325.63,244.09l-3.3-12.75,8,2.53L333,244.29C333.58,246,328,250.61,325.63,244.09Z" transform="translate(-44.812 -46.154)"/><rect class="ap" width="16.4" height="26.55" rx="6.96" transform="matrix(0.989, 0.149, -0.149, 0.989, 273.235, 169.624)"/><path class="as" d="M323.47,240.61a11,11,0,0,0,4.93-.57s-2.25,2.4-4.73,2.65Z" transform="translate(-44.711 -47.125)"/><path class="k" d="M324.26,217.74s3.53,9.69,6.82,12.3l-.67,2a6.86,6.86,0,0,0,.72,5.88l.46.72s17.09-13.06,3.38-24.25c-9.27-7.57-21.45-1.14-20.06,8.2Z" transform="translate(-44.426 -42.696)"/><path class="ap" d="M331.84,235.05a1.67,1.67,0,0,1-2.67-1.22,4,4,0,0,1,1.91-3.79,1.67,1.67,0,0,1,2.67,1.22A4,4,0,0,1,331.84,235.05Z" transform="translate(-45.482 -45.258)"/><path class="ap" d="M282,275.87l3.06,1.95c1.49,1,3.26.89,3.93-.16l.46-.73c.67-1,0-2.67-1.51-3.63l-3.06-1.95c-1.49-1-3.26-.88-3.93.16l-.46.73C279.78,273.28,280.46,274.92,282,275.87Z" transform="translate(-38.909 -53.466)"/><path class="d" d="M307.64,272.64v-.75l-1,.37-.2-.47-24-13.85a1.23,1.23,0,0,0-1.13.05L271,264v-.17l-1.91.77v.79h0a.38.38,0,0,0,.18.2l25,14.42a1.29,1.29,0,0,0,1.13,0l12-6.91a.47.47,0,0,0,.28-.36Z" transform="translate(-38.489 -51.824)"/><path class="g" d="M294.25,279.17l-25-14.41c-.29-.17-.25-.46.08-.66l12-6.9a1.26,1.26,0,0,1,1.13-.05l25,14.41c.29.17.25.46-.08.66l-12,6.9A1.23,1.23,0,0,1,294.25,279.17Z" transform="translate(-38.485 -51.661)"/><path class="d" d="M296,269.89l-6-3.49c-.07,0-.06-.11,0-.16l2.89-1.67a.31.31,0,0,1,.28,0l6,3.49c.07,0,.06.11,0,.15l-2.9,1.68a.32.32,0,0,1-.27,0Z" transform="translate(-40.252 -52.103)"/><path class="c" d="M293.62,263a2.77,2.77,0,0,0-1.15-1.74l-24.79-14.08a.61.61,0,0,0-.55-.09h0a.41.41,0,0,0-.13.1l-.82.86.75-.06,2.35,15.23a2.71,2.71,0,0,0,1.15,1.73l23.44,13.32.75.85.1.21c.47.1,1.61-.7,1.61-.7Z" transform="translate(-37.743 -50.268)"/><path class="at" d="M294.34,279.91l-24.79-14.09a2.71,2.71,0,0,1-1.15-1.73l-2.4-15.4c-.1-.66.25-.95.78-.64l24.79,14.08a2.71,2.71,0,0,1,1.15,1.74l2.38,15.4C295.22,279.92,294.87,280.21,294.34,279.91Z" transform="translate(-37.677 -50.433)"/><ellipse class="c" cx="1.05" cy="2.42" rx="1.05" ry="2.42" transform="translate(238.543 211.576) rotate(-46.62)"/><path class="k" d="M334.71,215.79s7.09-6.31,14.46,2.52,13.53-1.63,16,2.88,4,20.78-8,19.22-17.11-4-17.37-11-8.15-5.8-8.15-5.8Z" transform="translate(-47.274 -43.176)"/><path class="ap" d="M329.13,309.64a3.51,3.51,0,0,0,.72-.07c12.59-2.6,20.87-7.66,24.61-15,3.59-7.08,2.92-16.11-2-26.84a3.5,3.5,0,0,0-6.37,2.92c4,8.69,4.68,15.67,2.11,20.75-2.73,5.37-9.38,9.18-19.78,11.33a3.51,3.51,0,0,0,.7,6.94Z" transform="translate(-46.221 -54.846)"/><path class="ar" d="M345.62,250.31c6.56,8.91,8.84,19.33,10.59,29.77.78,4.7-8.16,6.41-8.95,1.69-1.65-9.85-3.71-19.48-9.9-27.89-2.92-4,5.37-7.51,8.26-3.57Z" transform="translate(-47.234 -50.809)"/><path class="at" d="M830.23,325.88l8.57-11.5,6.08-2.93c4.5,7.72,3.26,7,1.44,9.81l-7.84,8.68c-4.33,3.85-5.84,4.61-9.14,4.17h0C827,332.74,828,329.81,830.23,325.88Z" transform="translate(-137.383 -62.637)"/><path class="at" d="M846,341.67l6.22-12.93,5.41-4c5.89,6.72,4.53,6.24,3.29,9.36l-6,10c-3.52,4.6-4.86,5.64-8.18,5.83h0C844.21,349,844.61,346,846,341.67Z" transform="translate(-138.266 -65.502)"/><path class="ap" d="M889.16,200.91c-6.12,7-10.56,13.13-13.69,21.9-3,8.33-4.87,16.79-7,25.34-1.35,5.3-9.54,3-8.2-2.26,2.49-9.81,4.74-19.47,8.36-29,3.29-8.64,8.51-15.09,14.55-22,3.6-4.13,9.59,1.9,6,6Z" transform="translate(-138.266 -40.637)"/><path class="au" d="M879,191.17l-10.79,20c-1.74,6.41,12.54,10.77,14.45,5.66l8.69-20.13a6.79,6.79,0,0,0-3.41-8.45h0a6.79,6.79,0,0,0-8.94,2.92Z" transform="translate(-138.266 -38.128)"/><path class="e" d="M888.07,241.12c-8.49,3.21-17.09,6.08-25.7,9-4.6,1.56-9.5,3.09-13.49,6A27.4,27.4,0,0,0,840.24,267c-2.64,5.54-3.06,11.43-3.57,17.5-.83,9.85-1.09,19.82.43,29.63.54,3.52,5,5.48,8.12,4.61,3.77-1,5.16-4.59,4.61-8.12-1.46-9.43-.64-19.68.33-29.17a47.669,47.669,0,0,1,1.08-7c-.41,2,.13-.22.4-.78s.48-1,.73-1.48c.58-1.13,1.25-2.19,1.93-3.27s-1,.94.25-.31c.37-.37.76-.75,1.11-1.14s1.4-1.07-.11,0c.44-.32.89-.63,1.36-.92a26.093,26.093,0,0,1,3.25-1.65c-1.49.66,0,0,.37-.14.73-.27,1.46-.55,2.2-.81,9.6-3.44,19.32-6.47,28.85-10.08,3.34-1.26,5.62-4.45,4.61-8.12-.87-3.2-4.77-5.88-8.12-4.61Z" transform="translate(-138.266 -51.921)"/><path class="e" d="M897.74,253.13c-7.71,4.6-15.69,9-22.94,14.29-4.55,3.35-8.77,7.15-11.33,12.29C861,284.65,860,290,858.29,295.18c-3,9.28-6,18.5-8.35,28-2,8.25,10.69,11.77,12.73,3.51,2.27-9.19,5.14-18.17,8.09-27.16.73-2.25,1.29-4.53,1.93-6.8.34-1.21.7-2.43,1.11-3.62.18-.55.38-1.08.57-1.62.48-1.29-.48.9.28-.63a20.76,20.76,0,0,1,7.39-8.43c7.15-5.07,14.84-9.39,22.37-13.87,7.29-4.35.66-15.77-6.67-11.41Z" transform="translate(-138.266 -54.447)"/><path class="av" d="M887.1,267.9,872,259.15a7.62,7.62,0,0,1-2.78-10.36h0A7.63,7.63,0,0,1,879.54,246l15.15,8.75a7.61,7.61,0,0,1,2.77,10.37h0A7.6,7.6,0,0,1,887.1,267.9Z" transform="translate(-138.266 -49.344)"/><path class="au" d="M870.64,241.93c1.68.11,7.76-15.08,8-46.8l39.08,21.18c-4.42,20.53-.61,20.92-9.84,46Z" transform="translate(-138.266 -41.48)"/><path class="au" d="M892.72,253.28c.81,1.65,14.94-5.33,16.81-31.23.24-3.29.68-3.56,3.76-2.37l4.44-2.35c-2.5,16.73-.43,21.81-5,37.54A8,8,0,0,1,900.21,259Z" transform="translate(-138.266 -44.825)"/><path class="au" d="M897.86,266.15c-11.22-4.51-21.88-9.4-28-17.4-3.07-1.9-2.57-5.06,1.1-7h0c3.67-2,8.93-4.8,12-2.89L909.53,257c3.06,1.9,1,4-2.64,5.93v-2C903.22,262.83,900.92,268.05,897.86,266.15Z" transform="translate(-138.266 -48.236)"/><path class="au" d="M909.63,258.12,902,246.29c-17.7,23.33-27.17,5.61-31.36,3.4,6.26,6.78,15.45,11.46,25.64,15.56,3.06,1.9,8.57,1.85,12.24-.11h0C912.19,263.18,912.69,260,909.63,258.12Z" transform="translate(-138.266 -49.388)"/><path class="au" d="M881.73,188c-2.82,2.74-2.8,4.69-3.28,8.91a9.48,9.48,0,0,0,5.64,9.73l38.85,17s4.49-15.23-2.83-21c-3.94-3.12-10.05-8.08-14.84-12C898.24,184.83,888.24,181.64,881.73,188Z" transform="translate(-138.266 -37.859)"/><path class="ap" d="M898.35,195l-3.24-17.56,10.56,4.19L908.3,196C908.91,198.31,901,204,898.35,195Z" transform="translate(-138.266 -35.673)"/><path class="as" d="M897.71,190.92c.16.45,5.33-1.27,5.18-1.84,0,0-2.24,3.31-4.83,4.35Z" transform="translate(-138.266 -37.195)"/><path class="ap" d="M922.31,211.58c.76,7.64,2.11,15.23,2.68,22.88.48,6.63,1.69,15.41-1.93,21.46-6.07,10.15-22.52,6-32.1,8.81-5.26,1.57-7.5-6.63-2.26-8.19a62.649,62.649,0,0,1,15.77-2.22c4.34-.17,10.19.59,11.91-4.34,1.92-5.51.38-13.49-.22-19.2-.68-6.41-1.71-12.78-2.34-19.2-.54-5.43,8-5.4,8.49,0Z" transform="translate(-138.266 -43.567)"/><path class="ap" d="M866.16,242.4h0a4.64,4.64,0,0,1,1.71,6.31l-4.38,7.63a4.63,4.63,0,0,1-6.31,1.7h0a4.63,4.63,0,0,1-1.71-6.3l4.38-7.63a4.63,4.63,0,0,1,6.31-1.71Z" transform="translate(-138.266 -48.281)"/><path class="au" d="M910.77,210.41,912,233.13c1.84,6.38,16.31,2.69,15.28-2.67l-3-21.72a6.79,6.79,0,0,0-7.3-5.45h0a6.8,6.8,0,0,0-6.21,7.12Z" transform="translate(-138.266 -41.405)"/><path class="d" d="M894,263.05,890.53,262l-1.22.47-.26-.6-30.38-17.54a1.58,1.58,0,0,0-1.43.05l-13.08,7.56v-.21l-2.42,1v1h0a.44.44,0,0,0,.23.26l31.61,18.25a.17.17,0,0,1,.08.14c.42,2.69,1.34,5.09,3.67,3.69l14.49-8.4a3.89,3.89,0,0,0,2-3.07Z" transform="translate(-138.266 -49.683)"/><path class="g" d="M874.68,275l-36.4-21c-.42-.24-.37-.67.12-1l17.44-10.07a1.82,1.82,0,0,1,1.65-.07l36.41,21c.42.24.37.67-.12.95l-17.44,10.07A1.84,1.84,0,0,1,874.68,275Z" transform="translate(-138.266 -49.39)"/><path class="d" d="M877.17,261.44l-8.81-5.08a.128.128,0,0,1,0-.23l4.22-2.44a.44.44,0,0,1,.4,0l8.81,5.09c.1.06.09.16,0,.23l-4.22,2.44a.47.47,0,0,1-.4-.01Z" transform="translate(-138.266 -50.104)"/><path class="c" d="M873.76,251.33a4,4,0,0,0-1.68-2.54l-36.15-20.54a.91.91,0,0,0-.8-.13h0a.7.7,0,0,0-.19.15l-1.2,1.26,1.09-.1,3.44,22.21a4,4,0,0,0,1.67,2.54l34.18,19.42,1.11,1.24.13.31c.69.15,2.35-1,2.35-1Z" transform="translate(-144.466 -47.265)"/><path class="l" d="M874.81,276.06l-36.15-20.54A4,4,0,0,1,837,253l-3.47-22.46c-.15-1,.36-1.37,1.14-.93l36.15,20.54a3.91,3.91,0,0,1,1.67,2.54L876,275.12C876.1,276.08,875.59,276.5,874.81,276.06Z" transform="translate(-144.536 -47.528)"/><path class="c" d="M855.6,254.32c.18,1.19-.9,1.46-2.42.59a6.44,6.44,0,0,1-3.08-3.72c-.19-1.19.89-1.46,2.41-.6a6.52,6.52,0,0,1,3.09,3.73Z" transform="translate(-138.266 -49.254)"/><path class="ap" d="M877.32,264.19h0a4.91,4.91,0,0,1,3.13-6.17l8.86-2.91a4.91,4.91,0,0,1,6.18,3.13h0a4.92,4.92,0,0,1-3.12,6.18l-8.87,2.9a4.9,4.9,0,0,1-6.18-3.13Z" transform="translate(-138.266 -50.638)"/><path class="aw" d="M895.35,191.49c-1.86,3.68,1.43,7.13,4.8,8.22a9.61,9.61,0,0,0,5.18-.22,10.62,10.62,0,0,0,2.7-1,3.76,3.76,0,0,0,1.62-1.92c.67-1.7.94-4.38-.09-6a1.46,1.46,0,0,0-1.94-.51,1.44,1.44,0,0,0-.51,1.94l.1.17s-.09-.25,0-.09a1.143,1.143,0,0,1,.11.41,2.206,2.206,0,0,1,.05.25s0-.2,0,0v.58a5.931,5.931,0,0,1-.24,1.91,1.412,1.412,0,0,1-.14.44c-.05.14,0,0,0-.06a1.853,1.853,0,0,1-.1.2c-.08.16-.15.2,0,0l-.14.14c.09-.07.17-.11,0,0a6.159,6.159,0,0,1-.8.43c.17-.08-.21.08-.28.1l-.6.19c-.37.11-.74.21-1.11.29l-.57.11-.32.05h-.1c-.34,0-.69.07-1,.08h-.4c-.32,0,.22.07-.11,0a6.12,6.12,0,0,1-2.76-1.45l-.39-.39c-.06-.07-.12-.13-.17-.2a.9.9,0,1,0-.06-.09c-.1-.14-.19-.29-.28-.44l-.08-.17c.08.18,0,0,0-.08l-.06-.18s-.08-.37,0-.18,0,0,0-.06v-.32a1.234,1.234,0,0,1,0-.19v-.08l.06-.2c.13-.39-.11.2.08-.19a1.45,1.45,0,0,0-.51-1.94,1.43,1.43,0,0,0-1.93.51Z" transform="translate(-138.266 -37.609)"/><rect class="ap" width="20.988" height="33.987" rx="8.905" transform="translate(741.041 124.592) rotate(-6.34)"/><path class="e" d="M896.81,169.76c-3.21,1.82-5.9,1.18-9.7,0-4.12-1.24-5.61-5-2.69-8.17,1.58-1.71,2.62-3.52,6.13-5.26,10-4.94,21.21-.93,22.48,10.76,0,0,1.74,12.91-4.57,17.75a2.09,2.09,0,0,1-3.24-1h0s3.51-3.77-.9-6.49a6.57,6.57,0,0,1-2.76-4.93C901.54,170.47,898.54,168.79,896.81,169.76Z" transform="translate(-138.266 -31.337)"/><path class="ap" d="M907.62,181.47c-1.21,1.41-2.9,1.28-3.76-.29a5.13,5.13,0,0,1,.62-5.41c1.21-1.42,2.89-1.29,3.76.29A5.13,5.13,0,0,1,907.62,181.47Z" transform="translate(-138.266 -34.519)"/><path class="e" d="M886.86,169.65c-.09.29,10.32,2.5,13.61,9.12.6,1.2,2.53.67,3-.57a9.22,9.22,0,0,0-.49-8.67C899.5,164.12,887.51,167.53,886.86,169.65Z" transform="translate(-138.266 -33.111)"/><path class="r" d="M752.4,511.69a11.06,11.06,0,0,1-10,0c-2.77-1.6-2.78-4.18,0-5.77a11,11,0,0,1,10,0C755.14,507.52,755.15,510.1,752.4,511.69Z" transform="translate(-103.279 -99.738)"/><rect class="r" width="14.13" height="11.34" transform="translate(637.05 398.782)"/><path class="r" d="M750.29,497.4v11.33h0a3.48,3.48,0,0,1-2,2.9,9.13,9.13,0,0,1-2.86,1,11,11,0,0,0,7.08-1,3.48,3.48,0,0,0,2-2.9h0V497.4Z" transform="translate(-103.464 -99.151)"/><path class="ax" d="M752.4,500.35a11,11,0,0,1-10,0c-2.77-1.6-2.78-4.18,0-5.77a11.06,11.06,0,0,1,10,0C755.14,496.18,755.15,498.76,752.4,500.35Z" transform="translate(-103.279 -97.499)"/><path class="ay" d="M751.57,499.78a9.14,9.14,0,0,1-8.26,0c-2.29-1.32-2.3-3.46,0-4.77a9.14,9.14,0,0,1,8.26,0C753.83,496.34,753.84,498.47,751.57,499.78Z" transform="translate(-103.2 -97.459)"/><path class="az" d="M751.54,497.07a9.14,9.14,0,0,0-8.26,0,1.36,1.36,0,0,0,0,2.72,9.14,9.14,0,0,0,8.26,0,1.36,1.36,0,1,0,0-2.71Z" transform="translate(-103.186 -97.628)"/><path class="ba" d="M743.28,499.78a3.66,3.66,0,0,1-1.41-1.34,3,3,0,0,1,.67-.82,9.07,9.07,0,0,1,5.74.84,3.58,3.58,0,0,1,1.42,1.35,1.931,1.931,0,0,1,.25.63c-.34.08-.66.15-.93.19a9,9,0,0,1-5.74-.85Z" transform="translate(-102.867 -97.74)"/><path class="bb" d="M751.78,502.67c.55.29,1.12.56,1.66.88a2.831,2.831,0,0,1,.52.39c.11.11.07.06.12.16h0c.08,1.12.08,2.25.08,3.37v1.97h0v.07h0c0-.08.14-.11.28-.07-.14,0,.18.08,0,0-.32-.17-.53-.19-.93-.38l-.84-.44a.93.93,0,0,0-1.24.33.92.92,0,0,0,.33,1.24l1.1.56a4.289,4.289,0,0,0,1.51.51,1.63,1.63,0,0,0,1.51-1.29,8.2,8.2,0,0,0,.1-1.92,33.242,33.242,0,0,0-.09-4.12c-.17-1.54-2-2.17-3.15-2.8a.911.911,0,1,0-.92,1.57Z" transform="translate(-103.823 -99.25)"/><ellipse class="a" cx="17.7" cy="30.65" rx="17.7" ry="30.65" transform="translate(581.806 528.595) rotate(-89.427)"/><path class="at" d="M693,617l-7,8.72-1,5.79c1.54,2.91,2.57,4.32,5.33,4.47,2.32.13,4.71-2.93,5.77-4.79l3.94-9c3.1-6.42,1.24-8.23-.53-9.56h0C697.34,611.23,695.3,613.34,693,617Z" transform="translate(-95.81 -123.274)"/><path class="at" d="M723.56,630.36l-13.09,2.83-1.71,4.58c-.39,3.27-.35,5,1.84,6.7,1.84,1.43,5.54.27,7.47-.66l8.37-5.17c6.21-3.52,5.71-6.07,5-8.16h0C730.42,628.13,727.54,628.71,723.56,630.36Z" transform="translate(-99.77 -125.488)"/><path class="ap" d="M684.38,474.55c-7.16,10.85-10.33,24.69-13.15,37.22-.61,2.7-.85,4.31-.13,7,2.39,8.8,5.1,17,6.13,26.21.52,4.62,7.84,4.68,7.31,0a121.346,121.346,0,0,0-5.31-25.08c-.51-1.53-1.07-3.05-1.65-4.56.54,1.38-.18,2.4.1,1.17.17-.77.33-1.55.5-2.32,2.7-12.07,5.62-25.47,12.51-35.91,2.6-3.94-3.73-7.61-6.31-3.69Z" transform="translate(-94.179 -101.621)"/><path class="at" d="M683,475.79c-4.62,6.44-8.05,19-11.36,28.65-1.2,2.58-.66,5.35,1.11,5.7l5.86,2.42c1.47.29,4.4-2.19,5.2-4.4l8.8-24.37c1.43-4,.72-7.9-1.66-9.09l.14-2.15C690.73,470.86,686.45,471.27,683,475.79Z" transform="translate(-94.39 -96.993)"/><path class="c" d="M692.2,524.25a9.48,9.48,0,0,1-4.3,7.43c-2.38,1.37-4.31.27-4.31-2.46a9.47,9.47,0,0,1,4.31-7.42C690.28,520.42,692.2,521.52,692.2,524.25Z" transform="translate(-94.836 -103.354)"/><path class="bc" d="M715.15,450.86l.05,1.39s.18,4.16-3.92,2-4-7.36-4-7.36S710.42,446.54,715.15,450.86Z" transform="translate(-98.055 -88.291)"/><path class="bd" d="M711.25,454.38c5.35,2.78,5.16-2.08,5.16-2.08h0l-.15-1.66c-6-5.12-9.77-4.88-9.77-4.88A9,9,0,0,0,711.25,454.38Zm-3.74-7.28s3-.16,7.62,3.81v1.2s.14,3.61-3.84,1.55a7.45,7.45,0,0,1-3.78-6.56Z" transform="translate(-98.141 -88.225)"/><path class="bd" d="M718.41,453.23l-3.18-1.45-.17-1.8,3.18,1.45Z" transform="translate(-98.681 -88.403)"/><path class="bd" d="M706.79,447.16l-.56-.25a1.28,1.28,0,0,1-.63-1h0c0-.39.19-.59.49-.45l.57.26a1.29,1.29,0,0,1,.62.95h0C707.32,447.1,707.1,447.3,706.79,447.16Z" transform="translate(-97.214 -87.355)"/><path class="aw" d="M708.12,449.25h0c-.14-.15-.18-.36-.09-.45l1-1c.08-.09.25,0,.38.12h0c.14.16.18.36.09.45l-1,1.05C708.42,449.47,708.25,449.41,708.12,449.25Z" transform="translate(-97.531 -87.803)"/><path class="e" d="M706.91,557c4.87,14.27,5.32,29.62,4.86,44.56-.34,11.13-2.1,22.36-1.82,33.49.18,7.31,11.55,7.34,11.37,0-.29-11.44,1.54-23,1.85-34.42.42-15.57-.22-31.79-5.29-46.65-2.35-6.89-13.34-3.93-11,3Z" transform="translate(-98.826 -120.533)"/><path class="e" d="M684,544.15c2.55,9.26,3.71,18.83,4.63,28.37.55,5.64,1.22,11,.63,16.65-1.2,11.32-3.31,22.85-3.23,34.25,0,7.32,11.42,7.33,11.37,0-.08-11.57,2.09-23.27,3.28-34.76.6-5.79-.21-11.44-.78-17.23-1-10.17-2.22-20.43-4.93-30.31-1.94-7-12.91-4-11,3Z" transform="translate(-95.677 -117.902)"/><path class="e" d="M693.36,559.18h0c1,1.18-3.46-4.55-2.11-3.73,2.81,1.7,18.6,12.42,21.88,12.48,4,.06,1.66-3.77,4.61-6.42,2.8-2.52,3.46-6.6,3.73-10.36a6.529,6.529,0,0,0-.28-3.08,6.71,6.71,0,0,0-2.27-2.44c-7-5.3-20.81-18.44-30.61-14.24C677,536.24,688.34,553.55,693.36,559.18Z" transform="translate(-97.707 -108.63)"/><path class="r" d="M685.13,475.17c-2.07,2.68-1.83,4.33-1.73,8a8.18,8.18,0,0,0,6,7.64l35.15,9.85s2-13.52-4.91-17.59c-3.74-2.19-9.53-5.7-14.08-8.47C698.83,470.51,689.93,469,685.13,475.17Z" transform="translate(-98.034 -95.527)"/><path class="ap" d="M701.16,474.71l3-13.25,8.08,5.44L709.78,479C709.54,480.92,700.57,479.21,701.16,474.71Z" transform="translate(-97.514 -92.308)"/><path class="ap" d="M706.06,442.14s-8.1-5.64-8.18,8.07a23.92,23.92,0,0,0,13.57,21.53c4.87,2.32,10.83-.65,11.1-5.4,1.16-6.93,1.18-13.4-1.1-19,.33-5.73-3.62-3.69-10.43-4.06Z" transform="translate(-98.482 -89.646)"/><path class="be" d="M701.43,468.76s-9.37-3.48-8.48-16.67c1-14.26,14.09-13,21.38-13.73,3.23-.31,5.47-.78,8.78,2.17,3,2.68.19,8.71-4.12,9.1-1.71.16-.93,4.76-1.27,6.34-.61,2.81-2.37,4.19-3,6.91s-4.42,6.62-6.89,6.91C703.42,470.3,701.43,468.76,701.43,468.76Z" transform="translate(-98.383 -89.087)"/><path class="r" d="M683.28,538.7c-2.24-.86-1.71-39.32.31-60.56L723.15,497c-.2,18.08-2.48,32.35-.32,54.38Z" transform="translate(-97.801 -102.437)"/><path class="r" d="M709.63,555.28c-9.77-3.56-19.08-7.47-24.55-14.18-2.69-1.55-2.35-4.28.75-6.07h0c3.1-1.79,7.84-2,10.53-.44l24.56,14.18c2.68,1.55,2.34,4.29-.76,6.08h0C717.06,556.64,712.32,556.83,709.63,555.28Z" transform="translate(-97.819 -107.305)"/><path class="r" d="M723.15,497l-6.52-3.11c-.27,17.63-2.43,31.79-.3,53.43h-.11c0,1.22-.82,2.53-2.56,3.53h0c-3.11,1.79-7.84,2-10.53.44a113.179,113.179,0,0,1-13.38-5.65c5.4,4.14,12.51,7,19.88,9.71,2.69,1.55,7.43,1.36,10.53-.43h0c1.74-1,2.61-2.31,2.57-3.53h.1C720.67,529.32,723,515.05,723.15,497Z" transform="translate(-98.131 -104.363)"/><path class="c" d="M715,480.32c-9.08-1.37-15.21,4.34-17.37-8.73h0a2.9,2.9,0,0,1,3.92.85c1.55,2.25,4.87,3.68,8.53,3.23a2.87,2.87,0,0,1,2.77,1.3Z" transform="translate(-97.642 -93.229)"/><path class="ap" d="M716.52,492.15c.61,7.56,1.82,14.48,5,21.42,2.28,5,4.61,12.12,9.53,15.27,11.11,7.09,23-11.08,28.21-18,2.84-3.75-3.51-7.4-6.32-3.7-3,3.92-13.95,21.09-19.61,13.69-6-7.91-8.69-19-9.48-28.68-.38-4.66-7.7-4.7-7.31,0Z" transform="translate(-103.006 -100.598)"/><path class="ap" d="M716.9,460.12c.19,2.26-1,4.2-2.58,4.34a2.269,2.269,0,0,1-.52,0c-1.4-.22-2.58-1.81-2.75-3.82-.2-2.25,1-4.19,2.57-4.33S716.71,457.87,716.9,460.12Z" transform="translate(-98.374 -90.171)"/><path class="r" d="M712.8,491.92l4.69,19.41c2.62,5.21,14.5-.31,12.75-4.77l-6.11-18.24A6,6,0,0,0,717,484.8h0a6,6,0,0,0-4.2,7.12Z" transform="translate(-99.784 -98.183)"/><path class="be" d="M718.47,441.48a5.64,5.64,0,1,1-5.64-5.64,5.64,5.64,0,0,1,5.64,5.64Z" transform="translate(-98.374 -86.448)"/><path class="be" d="M724.84,440.84a5.65,5.65,0,1,1-5.64-5.64,5.65,5.65,0,0,1,5.64,5.64Z" transform="translate(-99.259 -86.323)"/><path class="be" d="M725.72,446.6a5.65,5.65,0,1,1-5.64-5.64,5.65,5.65,0,0,1,5.64,5.64Z" transform="translate(-99.381 -87.466)"/><path class="a" d="M431.51,682c-5.47-3.16-8.33-12-14.66-8.34L251.42,768.81c-3.29,1.89-5,4.29-5.21,6.6h0v.72l.24,8.43h0c-.85,2.58.24,5.19,3.39,7l91.22,52.85a19.57,19.57,0,0,0,10.35,2.12,25.633,25.633,0,0,0,2.9-.27,25.212,25.212,0,0,0,5.58-1.49,20.064,20.064,0,0,0,2.51-1.21l161.06-95.21a8.33,8.33,0,0,0-.14-14.43Z" transform="translate(-47.022 -165.681)"/><path class="bf" d="M234.53,777.8l-.26-9.14,11.79,7.65s-3.33,8.29-3.69,8Z" transform="translate(-32.605 -165.681)"/><path class="bf" d="M329.16,837.68l-91.22-52.85c-5.47-3.17-4.77-8.69,1.55-12.32l165.43-95.18c6.32-3.64,15.88-4,21.34-.85l91.22,52.85c5.46,3.17,4.77,8.68-1.55,12.32L350.49,836.83C344.17,840.46,334.62,840.84,329.16,837.68Z" transform="translate(-45.089 -165.681)"/><path class="bg" d="M339.17,787l65.75-109.7c6.32-3.64,15.88-4,21.34-.85l91.22,52.85c5.46,3.17,4.77,8.68-1.55,12.32L350.49,836.83a24.491,24.491,0,0,1-11,3Z" transform="translate(-56.964 -165.681)"/><path class="bg" d="M411.16,750.73l16.79-22.72,93.23-3.78-.04,10.66L419.21,767.2Z" transform="translate(-63.503 -165.681)"/><path class="e" d="M324.19,829.17c0,1.58-1.12,2.22-2.5,1.42a5.52,5.52,0,0,1-2.5-4.32c0-1.59,1.13-2.22,2.51-1.42a5.48,5.48,0,0,1,2.49,4.32Z" transform="translate(-44.122 -165.681)"/><path class="e" d="M329.17,827.24,238,774.39c-5.46-3.17-4.77-8.68,1.55-12.32L404.94,666.9c6.32-3.64,15.87-4,21.34-.86L517.5,718.9c5.46,3.16,4.77,8.68-1.55,12.31L350.51,826.39C344.19,830,334.64,830.41,329.17,827.24Z" transform="translate(-45.099 -165.681)"/><path class="bh" d="M474.93,703.34l-25.19-14.6c-1-.6-.9-1.66.3-2.35h0a4.55,4.55,0,0,1,4.07-.16l25.19,14.59c1,.61.91,1.66-.3,2.35h0A4.52,4.52,0,0,1,474.93,703.34Z" transform="translate(-63.726 -147.528)"/><path class="e" d="M291.7,812.65l-20.23-11.72a3.76,3.76,0,0,1-1.56-3h0c0-1.14.71-1.67,1.56-1.18l20.23,11.72a3.76,3.76,0,0,1,1.56,3h0C293.26,812.62,292.55,813.15,291.7,812.65Z" transform="translate(-38.007 -165.681)"/><path class="e" d="M492.36,751.53l10-5.74a2.61,2.61,0,0,0,1.08-2h0c0-.79-.49-1.15-1.08-.81l-10,5.74a2.58,2.58,0,0,0-1.08,2.05h0C491.28,751.51,491.77,751.88,492.36,751.53Z" transform="translate(-68.4 -165.681)"/><path class="e" d="M478.2,760.39l10-5.74a2.58,2.58,0,0,0,1.08-2h0c0-.79-.48-1.16-1.07-.82l-10,5.75a2.58,2.58,0,0,0-1.08,2.05h0C477.13,760.37,477.61,760.73,478.2,760.39Z" transform="translate(-66.429 -165.681)"/><path class="f" d="M410.08,672.36,271,752.4a4.85,4.85,0,0,0,0,8.41l84.31,48.85a4.88,4.88,0,0,0,4.86,0l139.11-80a4.85,4.85,0,0,0,0-8.41L414.97,672.4a4.86,4.86,0,0,0-4.89-.04Z" transform="translate(-48.094 -165.681)"/><path class="e" d="M447.3,703.36c-20.09-11.59-52.55-11.65-72.52-.13s-19.86,30.27.23,41.87,52.56,11.66,72.52.13S467.39,715,447.3,703.36Zm-60.38,34.87c-13.47-7.78-13.54-20.35-.16-28.08s35.16-7.69,48.64.09,13.53,20.35.15,28.08-35.16,7.68-48.63-.09Z" transform="translate(-55.122 -165.681)"/><path class="k" d="M447.53,745.23c12.22-7.05,16.91-16.81,14.11-26l-16.57,1.84c1.75,6.09-1.42,12.55-9.52,17.23-11.08,6.39-27.91,7.46-41,3.23l-8.69,8.34C405.47,756.4,430.86,754.86,447.53,745.23Z" transform="translate(-57.448 -165.681)"/><path class="c" d="M414.13,694.69l-1.31,9.72c8.2.26,16.29,2.2,22.58,5.83,5.68,3.28,9,7.42,9.88,11.69l16.82-.84c-1.26-6.47-6.18-12.75-14.8-17.73C438.06,698,426.19,695.14,414.13,694.69Z" transform="translate(-59.708 -174.124)"/><path class="c" d="M367.22,771l-38.75-22.37c-2.54-1.47-2.22-4.06.72-5.76h0c2.94-1.7,7.43-1.88,10-.41l38.75,22.37c2.55,1.47,2.23,4.06-.71,5.76h0C374.26,772.24,369.77,772.43,367.22,771Z" transform="translate(-47.44 -165.681)"/><path class="c" d="M348.1,781.4,309.35,759c-2.54-1.47-2.22-4.06.72-5.75h0c2.94-1.7,7.43-1.89,10-.42l38.75,22.37c2.55,1.47,2.23,4.07-.71,5.76h0C355.14,782.68,350.65,782.87,348.1,781.4Z" transform="translate(-44.664 -165.681)"/><path class="a" d="M380.91,624.15,238.61,542,15.44,670.85,156.3,752.68Z" transform="translate(0 -165.681)"/><path class="ag" d="M142.29,709.19,0,627.04,210.16,505.7l142.29,82.16Z" transform="translate(0 -121.425)"/><path class="bi" d="M0,661.93V627.04l142.29,82.15L352.45,587.86v34.89L142.29,744.08Z" transform="translate(0 -174.477)"/><path class="bj" d="M0,661.93V627.04l142.29,82.15v34.89Z" transform="translate(0 -173.817)"/><path class="bk" d="M116.56,712.34l23.2,13.79a4.77,4.77,0,0,0,4.88,0l39.62-23.72-40,20.45a4.75,4.75,0,0,1-4.13.1Z" transform="translate(0 -173.757)"/><path class="e" d="M256.59,583.45l15.14-8.74-74.36-42.93-15.14,8.74Z" transform="translate(-27.514 -110.837)"/><path class="e" d="M306.24,594.86l-24.37-14.17-15.13,8.74,24.45,14.11Z" transform="translate(-38.189 -116.797)"/><path class="k" d="M173.16,563.09l-15.36-8.86,15.26-8.82,15.36,8.87Z" transform="translate(-6.254 -109.017)"/><path class="k" d="M148.89,577.14l-15.36-8.87,15.26-8.81,15.36,8.87Z" transform="translate(0 -111.825)"/><path class="k" d="M125.11,590.98l-15.36-8.87,15.26-8.81,15.36,8.87Z" transform="translate(0 -114.591)"/><path class="k" d="M99.89,605.78l-15.35-8.86,15.26-8.81,15.36,8.86Z" transform="translate(0 -117.55)"/><path class="bl" d="M275.37,612.98l-87.19-50.34-7.19,4.15,87.19,50.34Z" transform="translate(-27.474 -117.687)"/><path class="bl" d="M251.87,627.47l-87.19-50.33-7.19,4.15,87.19,50.34Z" transform="translate(-23.906 -120.72)"/><path class="bl" d="M226.98,641.32l-87.19-50.34-7.19,4.15,87.18,50.34Z" transform="translate(-0.816 -123.615)"/><path class="bl" d="M203.49,658.22l-87.18-50.33-7.2,4.15,87.19,50.34Z" transform="translate(0 -127.152)"/><path class="k" d="M75.6,622.06l-15.36-8.87,15.27-8.81,15.35,8.87Z" transform="translate(0 -120.804)"/><path class="bl" d="M179.2,674.5,92.01,624.16l-7.19,4.15,87.19,50.34Z" transform="translate(0 -130.555)"/><ellipse class="a" cx="18.53" cy="37.31" rx="18.53" ry="37.31" transform="translate(467.898 639.948) rotate(-88.98)"/><path class="ap" d="M539.84,631c-1,5.59-8.81,37.64,5.63,35.63,4.14-.57,7.5-4.26,10-7.3a84.14,84.14,0,0,0,9.1-13.33c2.21-4-3.89-7.54-6.1-3.56a82.392,82.392,0,0,1-6.72,10.4,40.724,40.724,0,0,1-4,4.52,14.862,14.862,0,0,1-2.86,2.21c-.95.53.13,0,.08.29,0,.06.07.54-.09-.2s.07.24-.16-.43a10.911,10.911,0,0,1-.48-2.47c-.86-7.84,1-16.21,2.39-23.85.84-4.45-6-6.35-6.81-1.88Z" transform="translate(-75.97 -128.816)"/><ellipse class="bm" cx="2.62" cy="5.09" rx="2.62" ry="5.09" transform="matrix(0.976, -0.216, 0.216, 0.976, 451.278, 490.387)"/><rect class="bn" width="8.12" height="26.15" rx="3.87" transform="matrix(-0.943, -0.334, 0.334, -0.943, 470.721, 515.608)"/><rect class="ap" width="9.58" height="16.09" rx="4.75" transform="matrix(-0.957, -0.291, 0.291, -0.957, 469.192, 511.855)"/><rect class="ap" width="4.79" height="4.97" rx="1.76" transform="matrix(-0.957, -0.291, 0.291, -0.957, 475.893, 507.49)"/><path class="v" d="M551,610.85c.19-.07,5.93-1.06,6.15-1.06a2.4,2.4,0,0,1,2.41.72,7.7,7.7,0,0,1,2.19,6.61c-.28,1.37-1.06,2.1-2,2.09-.2.07-5.94,1.06-6.15,1a2.43,2.43,0,0,1-2.42-.71,7.7,7.7,0,0,1-2.18-6.62C549.3,611.57,550.08,610.84,551,610.85Z" transform="translate(-76.483 -120.834)"/><path class="v" d="M543.38,610.16c.29-.11,8.78-1.56,9.09-1.56a3.59,3.59,0,0,1,3.58,1.06,11.39,11.39,0,0,1,3.23,9.78c-.42,2-1.57,3.1-3,3.09-.28.1-8.77,1.56-9.09,1.56a3.57,3.57,0,0,1-3.57-1.06,11.4,11.4,0,0,1-3.24-9.79C540.82,611.22,542,610.14,543.38,610.16Z" transform="translate(-75.752 -121.338)"/><path class="bo" d="M543.39,610.11l-21.21-4.81,6.35,31.7,21.12-13.8C550.64,617.1,548.35,610.27,543.39,610.11Z" transform="translate(-73.858 -123.069)"/><path class="aq" d="M524.74,618.1l3.77,17.09s21.27-12.86,21.31-13.32A16.391,16.391,0,0,0,549,615Z" transform="translate(-74.027 -123.3)"/><ellipse class="v" cx="9.52" cy="16.49" rx="9.52" ry="16.49" transform="translate(441.7 483.077) rotate(-10.52)"/><path class="v" d="M515.31,611.13c-2.48,7-.57,17.27,4.26,22.93s10.76,4.55,13.24-2.46.57-17.28-4.26-22.93S517.79,604.11,515.31,611.13Z" transform="translate(-72.14 -123.158)"/><path class="c" d="M517,611.46c-2.3,6.51-.53,16,4,21.27s10,4.22,12.27-2.28.54-16-3.94-21.26S519.29,605,517,611.46Z" transform="translate(-72.286 -122.96)"/><path class="bo" d="M533.43,617.5a21.569,21.569,0,0,0-4.16-8.29c-4.48-5.25-10-4.23-12.27,2.28-.66,1.86-1.23,4-.89,8.91C520.74,613.69,527.65,614.28,533.43,617.5Z" transform="translate(-72.226 -120.642)"/><path class="aq" d="M533.77,625.52a10.21,10.21,0,0,0-2-9.39,3.72,3.72,0,0,0-3-1.53h-.38l-3.78.57c-.15,0-.32.11-.46.11h.62V615a3.74,3.74,0,0,0-2.54,2.43A10.24,10.24,0,0,0,524,626.9c1,1.11,1.78,1.63,2.78,1.56h.18a2.7,2.7,0,0,0,.41,0l3.5-.26c.29,0,.61.13.87.13h0V628A3.513,3.513,0,0,0,533.77,625.52Z" transform="translate(-72.662 -122.284)"/><path class="q" d="M531.44,612.43l-6.32,1.48c-.14,0-.27.39-.4.39h0v-.5a3.15,3.15,0,0,0-2.16,2.31,10.26,10.26,0,0,0,1.51,9.22c.92,1.08,1.65,1.53,2.65,1.43H527a2.748,2.748,0,0,0,.4-.06s6.52-1.27,6.77-1.36a24.92,24.92,0,0,0-2.73-12.91Z" transform="translate(-72.686 -121.922)"/><path class="c" d="M544.78,611.02l-12.92-2.87,2.74,4.12,11.18.8Z" transform="translate(-74.181 -119.714)"/><path class="bp" d="M555.89,610.9l-7.64,1.47-1.35-1.57,7.74-1.37Z" transform="translate(-75.902 -119.685)"/><path class="e" d="M557.93,779.74l10.73-8.18,6.26-1.07c2.07,8.14,1.13,7.16-1.24,9.24l-9.34,5.82c-4.92,2.35-6.48,2.65-9.35,1.39h0C553.26,785.1,554.9,782.71,557.93,779.74Z" transform="translate(-77.927 -165.681)"/><path class="e" d="M597.5,792.71,605.68,782l5.76-2.68c4.15,7.3,3,6.6,1.24,9.24l-7.46,8.08c-4.12,3.57-5.55,4.27-8.64,3.82h0C594.42,799.13,595.37,796.38,597.5,792.71Z" transform="translate(-83.459 -165.681)"/><path class="c" d="M564.19,626.39l-10.13,17.37c-1.74,5.61,10.75,9.89,12.58,5.44l8.29-17.53a6,6,0,0,0-2.76-7.56h0a6,6,0,0,0-7.98,2.28Z" transform="translate(-77.848 -126.123)"/><path class="ar" d="M599.13,696.32a13.09,13.09,0,0,1,1.94,8.47c-1.56,13.58-.39,24.81,3.06,38.49,3,11.66,7.68,23.28,9.51,35.18,1.09,7-9.83,8.83-10.92,1.78-.74-4.82-2.32-9.55-3.68-14.23-2.13-7.31-4.25-14.62-6.09-22-3.93-15.75-7.38-32.74-4.9-49,1.07-7,12.08-5.88,11,1.18Z" transform="translate(-82.955 -165.681)"/><path class="ar" d="M577.57,695.08c-2.44,8.91-3.58,18.09-4.48,27.27-.52,5.39-1.24,10.63-.7,16,1.09,10.86,3.05,21.88,3,32.82,0,7.11-11.1,7.13-11.07,0,.06-11.14-2-22.36-3.06-33.43-.57-5.81.38-11.63,1-17.42,1-9.47,2.15-19,4.67-28.2,1.87-6.86,12.55-3.95,10.67,2.94Z" transform="translate(-78.48 -165.681)"/><path class="ar" d="M575,709.71h0c1,1.14-3.37-4.43-2.06-3.63,2.74,1.65,18.1,12.09,21.29,12.14,3.87.06,1.62-3.67,4.49-6.25s3.37-6.42,3.63-10.08a6.161,6.161,0,0,0-.28-3,6.4,6.4,0,0,0-2.2-2.37c-6.83-5.17-20.25-17.95-29.78-13.86C559.06,687.39,570.1,704.23,575,709.71Z" transform="translate(-80.738 -148.962)"/><path class="c" d="M567.85,628c-2,2.6-1.78,4.21-1.68,7.77a7.93,7.93,0,0,0,5.8,7.42l34.2,9.6s9.83-9.45,3.09-13.41c-3.64-2.13-17.14-9.26-21.57-12C581.18,623.42,572.52,621.94,567.85,628Z" transform="translate(-81.557 -126.416)"/><path class="c" d="M565.18,689.78c1,1.32,2.3-35.58.29-58.93L604,649.17c-.2,17.59.22,39.4-1.05,53.63C597.93,712.4,581,700,565.18,689.78Z" transform="translate(-80.86 -135.533)"/><path class="ap" d="M582.84,631.47,578.92,617l9.93,2.75,3.18,11.8C592.72,633.49,585.72,638.84,582.84,631.47Z" transform="translate(-80.683 -123.41)"/><path class="as" d="M581.92,628.6s4.07-2.08,4.09-2.12-1.4,3-3.42,4.12Z" transform="translate(-80.367 -123.205)"/><rect class="ap" width="18.62" height="30.14" rx="7.9" transform="translate(494.292 475.31) rotate(10.16)"/><path class="e" d="M583.56,609.3c-3.18.74-6.92.74-9.85-1.18-3.18-2.08-4.59-7.48-1.33-9.43,1.76-1.06,5.8-1.49,9.21-2.09,9.67-1.71,18.34,4.92,16.5,15.14,0,0-1.74,11.41-8.31,13.93A1.85,1.85,0,0,1,587.3,624h0s3.81-3.52-.51-7.58c-1-.94-.92-2.59-.47-4.23a2.33,2.33,0,0,0-2.76-2.89Z" transform="translate(-80.705 -120.912)"/><path class="ap" d="M590.4,622.63a1.89,1.89,0,0,1-3-1.47,4.55,4.55,0,0,1,2.28-4.24,1.89,1.89,0,0,1,3,1.47,4.53,4.53,0,0,1-2.28,4.24Z" transform="translate(-81.22 -121.588)"/><path class="ap" d="M604.17,651c2.15,6.61,7.07,12,9.53,18.56,4.66,12.37,2.28,25.15-3.21,36.85-2,4.16,4.24,7.81,6.2,3.62,5.87-12.51,9-26.32,4.8-39.84a61.138,61.138,0,0,0-5.76-12.71c-1.57-2.7-3.67-5.43-4.64-8.39-1.43-4.37-8.36-2.5-6.92,1.91Z" transform="translate(-84.712 -137.118)"/><path class="c" d="M601.18,646.81l5.36,19.38c2.81,5.16,14.59-.79,12.68-5.22l-6.76-18.16a6,6,0,0,0-7.35-3.3h0A6,6,0,0,0,601.18,646.81Z" transform="translate(-84.206 -129.531)"/><path class="a" d="M876.03,714.9l-4.31-90.66-23.3-13.88,23.3,13.88L851.6,659.76l1.78,42.61,22.65,12.53L712.57,805.84l-21.12-12.68,167.47-98.7Z" transform="translate(-145.918 -165.681)"/><path class="v" d="M895.37,592.59v5.93l54.22,30.95.16-6.17Z" transform="translate(-138.266 -121.256)"/><path class="k" d="M876.03,714.66l-22.65-12.53-1.78-42.61L871.72,624l-23.3-13.88L773.15,748.11l21.12,12.68L871.72,624l4.31,90.66" transform="translate(-145.057 -165.681)"/><path class="k" d="M933.13,613.63l6.34-5.94-24.99-15.1-59.8,109.63L875.8,714.9" transform="translate(-138.266 -128.019)"/><path class="k" d="M794.33,759.71l-22.65-12.54-1.78-42.6,20.11-35.53-23.29-13.88-75.27,138,21.12,12.68,77.44-136.8,4.32,90.67" transform="translate(-105.948 -165.681)"/><path class="v" d="M794.33,759.71l-22.65-12.54-1.78-42.6,20.11-35.53-23.29-13.88,23.29,13.88,4.32,90.67" transform="translate(-108.436 -165.681)"/><path class="v" d="M876.03,714.9l-22.65-12.53-1.78-42.61,20.12-35.52-23.3-13.88,23.3,13.88,4.31,90.66" transform="translate(-138.266 -128.921)"/><path class="k" d="M895.37,592.59l51.78-28.41,2.57,60.08Z" transform="translate(-138.266 -118.848)"/><ellipse class="a" cx="14.54" cy="24.49" rx="14.54" ry="24.49" transform="translate(175.15 550.632) rotate(-85.04)"/><path class="ap" d="M198.07,596.48c1.36,8.75,4.54,15.15,8.89,22.69,1.43,2.47,3,4.67,2.5,7.55-.66,4-1.9,7.72-2.35,11.76-.48,4.43,6.45,4.39,6.93,0,.79-7.22,4.08-12.65.65-19.61-1.8-3.66-4.22-7-6.1-10.57-2.22-4.27-3.11-8.95-3.84-13.66-.69-4.39-7.36-2.53-6.68,1.84Z" transform="translate(-27.739 -123.104)"/><path class="j" d="M196.37,596.66c2.83,8,6.6,15.57,9.75,23.47,2.18,5.45,11.12,3.07,8.91-2.46-3.15-7.89-6.92-15.43-9.75-23.47C203.28,588.63,194.39,591.03,196.37,596.66Z" transform="translate(-27.498 -120.239)"/><path class="ap" d="M193.86,646.59c7.78,3.51,17.34,10.07,21.31,17.89,2.32,4.56,2,9.23,1.72,14.11l-1.38,25.69c-.34,6.29,9.44,6.27,9.78,0l1.5-28.09c.35-6.52-.63-13-4.27-18.54-5.37-8.23-14.85-15.5-23.72-19.5-5.69-2.56-10.67,5.86-4.94,8.44Z" transform="translate(-27.279 -136.276)"/><path class="ap" d="M253.38,682.74c-7.07-7.69-12.12-16.71-20.06-23.7-4.91-4.33-10.25-6.73-16.67-4.86-7.73,2.25-14.11,2.67-21.13-2-5.24-3.52-10.14,5-4.94,8.44a29.45,29.45,0,0,0,21.72,4.78c2.65-.44,5.12-1.37,7.71-2,1.08-.25,1-.3,1.55-.23,2.32.31,4.39,2.35,6,3.84,7.32,6.81,12.2,15.37,18.91,22.67,4.27,4.64,11.17-2.29,6.91-6.92Z" transform="translate(-27.739 -133.772)"/><path class="bq" d="M252,695.82l.31-.62a.72.72,0,0,0-.34-1h0a.73.73,0,0,0-1,.33l-.3.63a.72.72,0,0,0,.33.95h0a.71.71,0,0,0,1-.29Z" transform="translate(-34.53 -175.465)"/><path class="br" d="M252.26,694.43l-1.94-2.61a.72.72,0,0,0-1-.15h0a.72.72,0,0,0-.15,1l1.94,2.62a.73.73,0,0,0,1,.15h0a.74.74,0,0,0,.15-1.01Z" transform="translate(-34.368 -175.536)"/><path class="e" d="M244.18,689.57c2.79,2.53,6.7,6.46,6.7,6.46l1.23-.59-2.46-3c-.21-.56.95-.64,1.64-.4,4.11,1.41,4.19,4.16,7.11,4,0,0,6-1.3,9.92-5.5,0,0,1.55-2.37-.34-3-3.7-1.22-15.65-3.39-18.19-4.1l-.44.15-5.23-2.05c-1.09.4-1.78,3-1.5,4.7A4,4,0,0,0,244.18,689.57Z" transform="translate(-34.261 -146.635)"/><path class="ap" d="M244.49,680.85l3.24.18s10.88,4.14,13,5c2.46,1-1.81,9.06-14.34,1.68C238.85,684.5,244.49,680.85,244.49,680.85Z" transform="translate(-33.99 -146.088)"/><path class="bs" d="M205.68,631.59c16.76,10.63,27,20.35,26.36,24.92,0,0-8.35-4.63-14.9-.83s-5.07,7-3.42,8.73c.52.55-2.87,4.16-3.63,4.18-7.77.24-31.81-2.6-32.29-17.25-.4-12.42,1.3-13.91,1.3-13.91S196.57,643.49,205.68,631.59Z" transform="translate(-25.844 -129.257)"/><path class="j" d="M200.81,596.66s6.39,8.88,6,14.48c-.22,3.56-2.55,7.68-2.85,8.84-2.52,9.44-.67,12.15-.86,14.73,0,0-1.52,8.94-23.76,1.86l-9.84-26.05Z" transform="translate(-24.213 -122.963)"/><path class="j" d="M171.93,616.65c-.2-.34-2.3-3.65-2.39-4-1-4.4-3.56-7.76,1.15-13.6,1-1.22,11.82-7.92,20.29-10a9.14,9.14,0,0,1,10.24,4.86,46.829,46.829,0,0,1,2.31,6.63c.92,8.76-3.64-2.56-4,2.33v-.35c0-.11-.59,8.26-1,14.65-.27,4-.46,6.87-.47,7.28h0l-14.17,12.56-8.63-13.66h0Z" transform="translate(-23.95 -122.191)"/><path class="ap" d="M190.44,589s7.86,7.24,1.74,13-17.79-5.7-17.79-5.7C179.94,592.36,185.33,589.6,190.44,589Z" transform="translate(-6.83 -117.296)"/><path class="n" d="M169.54,612.62c1,.4,3.63,4,5.72,5.83,4.07,3.6,10,5.68,15.16,4.11a84.615,84.615,0,0,0,15.26-6.68s-1.57,9.52,0,15.71c1,4.11-7.66,7.23-7.66,7.23-9.63,3.61-18.92-1.39-18.92-1.39L172,618.35Z" transform="translate(-24.191 -123.92)"/><path class="bs" d="M190.51,589.87l.05.11c-.07-.16.06.16.09.22.12.33.23.66.34,1,.27.82.52,1.65.76,2.49a32.53,32.53,0,0,1,1.17,4.89v.37c0,.12-.06.23,0,0a3.82,3.82,0,0,1-1.13,1.3,7.17,7.17,0,0,1-3.57,1.43c-2.42.28-4.28-.79-6.31-1.9-.93-.5-1.86-1-2.8-1.51a6.66,6.66,0,0,1-1.14-.69c-.54-.48-1-1.05-1.55-1.5a1.27,1.27,0,0,0-1.73,0,1.24,1.24,0,0,0,0,1.73,21.249,21.249,0,0,0,3,2.46l2.7,1.46c2.41,1.31,4.7,2.62,7.56,2.42a9.791,9.791,0,0,0,4.41-1.34,6.08,6.08,0,0,0,2.93-3.21,5.339,5.339,0,0,0-.14-2.21c-.19-1-.45-2.07-.72-3.09a28,28,0,0,0-1.85-5.68c-.73-1.4-2.84-.17-2.11,1.23Z" transform="translate(-6.834 -117.316)"/><path class="bq" d="M216.57,714l.62-.32a.72.72,0,0,0,.3-1h0a.73.73,0,0,0-1-.31l-.61.33a.71.71,0,0,0-.31,1h0a.73.73,0,0,0,1,.3Z" transform="translate(-29.699 -174.297)"/><path class="br" d="M217.58,713v-3.26a.73.73,0,0,0-.72-.72h0a.72.72,0,0,0-.72.72V713a.71.71,0,0,0,.72.71h0a.72.72,0,0,0,.72-.71Z" transform="translate(-29.771 -174.361)"/><path class="e" d="M214,704.3c.73,3.69,1.53,9.18,1.53,9.18l1.34.25-.21-3.84c.16-.57,1.14.05,1.55.66,2.46,3.59.89,5.84,3.3,7.49,0,0,5.61,2.54,11.25,1.5,0,0,2.65-1,1.51-2.61-2.25-3.19-10.56-12-12.18-14.13l-.44-.14-3-4.77c-1.12-.32-3.22,1.35-4,2.88A4,4,0,0,0,214,704.3Z" transform="translate(-30.031 -174.196)"/><path class="ap" d="M219.43,697.48l2.5,2.07s6.27,9.81,7.45,11.77c1.37,2.27-6.86,6.2-12.52-7.19C212.73,697.06,219.43,697.48,219.43,697.48Z" transform="translate(-30.062 -174.525)"/><path class="e" d="M203.5,574.77c1,2.78,1.25,6.14-.56,8.47-.34.43-.73.81-1.1,1.21a17.531,17.531,0,0,0-2.53,3.41,1.6,1.6,0,0,1-.44.58,1.22,1.22,0,0,1-1.52-.28,8,8,0,0,1-.92-1.42c-.92-1.4-20.1,9.77-21,8.39-1.28-1.88,3.44-23.09,3.93-25.3.64-2.83,14.64.92,16.94-.85a12.32,12.32,0,0,0,1.35-1h0c.58-.58,1.12-1.82,2.08-1.4.78.33,1,1.73,1.31,2.41C201.77,570.92,202.8,572.78,203.5,574.77Z" transform="translate(-24.817 -114.764)"/><path class="ap" d="M189.37,593.91,193.23,579l-9.34,3-3.14,12.18C180.08,596.12,186.57,601.53,189.37,593.91Z" transform="translate(-7.016 -115.895)"/><path class="as" d="M190.3,590s-4.19-2.15-4.21-2.19,1.44,3.06,3.52,4.25Z" transform="translate(-7.159 -115.618)"/><rect class="ap" width="16.63" height="26.93" rx="7.06" transform="translate(190.129 475.776) rotate(-178.282)"/><path class="e" d="M187.77,572.47c2.93-3.61,8.34.7,11.26-.43,3.17-1.22,2.1-4.48-.06-7.11a12,12,0,0,0-5.55-3.71c-8.2-3.1-16.43.37-16.74,9.65,0,0-1.07,12.62,6.33,14.49l.8-1.77s-4.26-4.69.28-7.44c1.06-.64,1.11-.65,1-2.2S186.78,573.69,187.77,572.47Z" transform="translate(-6.951 -112.987)"/><path class="ap" d="M181.25,583.76a2,2,0,0,0,3.33-.83,4.67,4.67,0,0,0-1.39-4.76,2,2,0,0,0-3.33.84A4.68,4.68,0,0,0,181.25,583.76Z" transform="translate(-6.919 -113.947)"/><path class="e" d="M201,579.39s-.12-4.27-10.32-9.84-.47-.26-.47-.26L200.35,567S204.35,571.54,201,579.39Z" transform="translate(-26.008 -112.613)"/><path class="ap" d="M166.2,608.94a100.2,100.2,0,0,0-.72,17.22c.11,5.36-1.44,11.6.11,16.86,1,3.4,3.76,4.91,7.1,5.31,5.68.68,11.44.4,17.14,1.12,4.41.56,4.37-6.37,0-6.93-4.91-.62-9.78-.73-14.71-.94-2.52-.12-2.82.4-3.06-1.69-.57-5,.51-10.16.31-15.18a72.18,72.18,0,0,1,.51-13.93c.65-4.36-6-6.24-6.68-1.84Z" transform="translate(-6.518 -125.041)"/><path class="j" d="M167.27,603.39c-4.23,10.9-3.17,21.27-2.89,32.67.15,5.93,9.39,6,9.24,0-.26-10.6-1.37-20.09,2.56-30.21,2.15-5.55-6.78-8-8.91-2.46Z" transform="translate(-0.913 -123.342)"/><path class="ap" d="M209.26,645.08h0a4,4,0,0,0,4.57-3.3l1.37-8.51a4,4,0,0,0-3.3-4.58h0a4,4,0,0,0-4.58,3.31L206,640.51A4,4,0,0,0,209.26,645.08Z" transform="translate(-28.592 -125.472)"/><path class="d" d="M187.34,650.66v-.78l1,.39.22-.49,25-14.42a1.33,1.33,0,0,1,1.18,0l10.75,6.21v-.18l2,.8v.83h0a.38.38,0,0,1-.19.21l-26,15a1.33,1.33,0,0,1-1.18,0L187.63,651a.49.49,0,0,1-.29-.38Z" transform="translate(-26.839 -127.811)"/><path class="g" d="M201.27,657.46l26-15c.3-.17.26-.48-.09-.68l-12.45-7.19a1.33,1.33,0,0,0-1.18-.05l-26,15c-.3.18-.27.48.08.68l12.45,7.19A1.3,1.3,0,0,0,201.27,657.46Z" transform="translate(-26.839 -127.652)"/><path class="d" d="M199.5,647.8l6.28-3.63c.08,0,.07-.12,0-.17l-3-1.74a.31.31,0,0,0-.28,0l-6.29,3.63c-.08,0-.07.12,0,.17l3,1.74a.33.33,0,0,0,.29,0Z" transform="translate(-27.242 -126.526)"/><path class="c" d="M201.93,640.58a2.83,2.83,0,0,1,1.2-1.81l25.8-14.66a.63.63,0,0,1,.57-.09h0a.36.36,0,0,1,.14.1l.85.9-.77-.07-2.46,15.85a2.78,2.78,0,0,1-1.19,1.81l-24.4,13.87-.78.88-.1.22c-.5.11-1.68-.73-1.68-.73Z" transform="translate(-28.269 -127.166)"/><path class="e" d="M201.18,658.23,227,643.57a2.85,2.85,0,0,0,1.2-1.81l2.48-16c.1-.68-.26-1-.82-.67l-25.79,14.67a2.76,2.76,0,0,0-1.2,1.8l-2.48,16C200.26,658.25,200.63,658.55,201.18,658.23Z" transform="translate(-28.416 -127.332)"/><path class="ap" d="M199.52,649.12h0a4,4,0,0,0-2.55-5l-7.22-2.37a4,4,0,0,0-5,2.55h0a4,4,0,0,0,2.55,5l7.22,2.37a4,4,0,0,0,5-2.55Z" transform="translate(-7.187 -127.103)"/><path class="c" d="M214.89,642.71c-.13.85.64,1,1.73.43a4.65,4.65,0,0,0,2.2-2.66c.13-.85-.64-1-1.72-.43a4.63,4.63,0,0,0-2.21,2.66Z" transform="translate(-29.672 -125.755)"/><path class="e" d="M188.2,572s-8.2,10.74-7.46,17.77c.6,5.8,6.91,9.5,8,18.28a1.83,1.83,0,0,1-3.26,1.33A25.461,25.461,0,0,0,180,604c-5.47-3.75-6.47-7.74-6-10.66s2.79-24.23,2.79-24.23l12.58-1.25Z" transform="translate(-6.775 -116.967)"/><path class="c" d="M804.27,279.76,728,235.7a4.07,4.07,0,0,0-6.16,2.27,6.66,6.66,0,0,0,2.91,7.51l76.31,44a4.07,4.07,0,0,0,6.16-2.27,6.66,6.66,0,0,0-2.95-7.45Z" transform="translate(-108.52 -49.199)"/><path class="c" d="M820,288.87l-76.31-44.05a4.08,4.08,0,0,0-6.16,2.26,6.67,6.67,0,0,0,2.92,7.51l76.3,44.06a4.08,4.08,0,0,0,6.17-2.27,6.67,6.67,0,0,0-2.92-7.51Z" transform="translate(-110.883 -51.112)"/><path class="bt" d="M271.09,415.2c-13.78-8.26-36.34-8.64-50.38-.84s-14.26,20.83-.49,29.09,36.09,8.65,50.4,1C286.35,436.05,284.87,423.46,271.09,415.2Z" transform="translate(-31.114 -84.084)"/><path class="bu" d="M259.72,413.38c-13.08-7.85-34.51-8.2-47.85-.79s-13.54,19.77-.46,27.62,34.28,8.21,47.87,1C274.21,433.18,272.81,421.23,259.72,413.38Z" transform="translate(-29.769 -83.563)"/><path class="bv" d="M259.26,405.24c-13.08-7.84-34.5-8.2-47.84-.79s-13.55,19.78-.46,27.62,34.27,8.21,47.86,1C273.75,425.05,272.35,413.09,259.26,405.24Z" transform="translate(-29.702 -81.893)"/><path class="bw" d="M226.9,410.63l-3.88,13.33,31.44-7.11" transform="translate(-31.665 -81.648)"/></g></g></svg>