<svg width="148" height="30" viewBox="0 0 148 30" fill="none" xmlns="http://www.w3.org/2000/svg">
<path d="M28.1683 5.49426C23.2724 5.49426 19.8828 9.17982 19.8828 13.9233C19.8828 18.7008 23.3066 22.3521 28.3736 22.3521C31.8658 22.3521 34.7075 20.646 35.7345 17.7451H31.8315C31.1811 18.7691 29.9827 19.2467 28.4079 19.2467C25.395 19.2467 23.8543 17.404 23.5118 14.9811H36.1455C36.8301 9.55532 33.5091 5.49441 28.1683 5.49441V5.49426ZM28.2024 8.49723C30.7018 8.49723 32.4136 9.89639 32.6189 12.524H23.5805C23.9913 10.2717 25.532 8.49723 28.2024 8.49723Z" fill="#024162"/>
<path d="M57.8282 5.49426C55.4658 5.49426 53.6514 6.2791 52.0764 7.8148C50.878 6.27895 49.0293 5.49426 46.7354 5.49426C44.6128 5.49426 43.1749 6.17669 41.9765 7.26877V5.90375H38.416V21.9427H41.9765V10.9885C43.1407 9.38464 44.6472 8.70205 46.3246 8.70205C48.4131 8.70205 49.9195 9.7257 49.9195 12.5583V21.9427H53.4459V12.5583C53.4459 11.9781 53.4116 11.3979 53.3089 10.886C54.5073 9.28223 56.0136 8.7022 57.5884 8.7022C59.8825 8.7022 61.3888 9.93067 61.3888 12.763V21.9427H64.9152V12.763C64.9152 8.01962 62.0394 5.49441 57.828 5.49441L57.8282 5.49426Z" fill="#024162"/>
<path d="M76.8356 5.52801C74.7815 5.52801 73.0354 6.14232 71.7002 7.16597V5.90337H68.1396V29.8593H71.7002V20.6796C73.0354 21.7032 74.7816 22.3175 76.8356 22.3175C81.3549 22.3175 85.0183 18.5978 85.0183 13.9228C85.0183 9.24755 81.3548 5.52786 76.8356 5.52786V5.52801ZM76.3221 19.2463C74.5417 19.2463 72.8984 18.5638 71.7 16.8576V10.9881C72.8984 9.28169 74.5417 8.59941 76.3221 8.59941C79.3006 8.59941 81.4575 11.0565 81.4575 13.9229C81.4575 16.7893 79.3006 19.2463 76.3221 19.2463Z" fill="#024162"/>
<path d="M95.2973 5.01624C90.059 5.01624 86.293 8.66765 86.293 13.6498C86.293 18.7004 90.059 22.4542 95.2973 22.4542C100.536 22.4542 104.302 18.7005 104.302 13.6498C104.302 8.6675 100.536 5.01624 95.2973 5.01624ZM95.3314 17.6767C93.0718 17.6767 91.5654 15.9022 91.5654 13.6841C91.5654 11.5341 93.0719 9.79371 95.3314 9.79371C97.5568 9.79371 99.0633 11.5341 99.0633 13.6841C99.0633 15.9022 97.5568 17.6767 95.3314 17.6767Z" fill="#024162"/>
<path d="M130.793 5.39157H125.007L122.405 14.1958L119.597 5.39157H115.215L112.407 14.2641L109.806 5.39157H103.985L109.703 21.9423H114.736L117.406 13.4111L120.042 21.9423H125.11L130.793 5.39157Z" fill="#024162"/>
<path d="M140.912 4.87982C139.132 4.87982 137.66 5.45999 136.325 6.51777V5.39157H130.778V21.9423H136.325V11.5682C137.283 10.4761 138.379 9.89595 139.406 9.89595C141.221 9.89595 142.419 11.022 142.419 13.3767V21.9421H148V12.4894C148 7.78008 145.124 4.87952 140.912 4.87952V4.87982Z" fill="#024162"/>
<path fill-rule="evenodd" clip-rule="evenodd" d="M3.00009 4C4.65678 4 6 5.34291 6 7C6 8.65709 4.65696 10 3.00009 10C1.34322 10 0 8.65709 0 7C0 5.34308 1.34304 4 3.00009 4Z" fill="#08A05C"/>
<path d="M17.6109 18.4618C16.7892 18.8031 15.8304 19.0761 14.8717 19.0761C12.8859 19.0761 11.7219 18.0864 11.7219 15.7659V8.87252H17.6792V5.90368H11.7219V0H8.16113C8.16113 5.66024 8.16113 10.0204 8.16113 15.766C8.16113 19.8952 10.3524 22.3521 14.4609 22.3521C15.5566 22.3521 16.7206 22.2156 18.1243 21.7038L17.6107 18.4619L17.6109 18.4618Z" fill="#024162"/>
</svg>
